  0
SECTION
  2
HEADER
  9
$ACADVER
  1
AC1009
  9
$FILLMODE
 70
 0
  9
$SPLFRAME
 70
 1
  9
$EXTMIN
 10
0
 20
0
 30
0.0
  9
$EXTMAX
 10
1058.33
 20
1058.33
 30
0.0
  0
ENDSEC
  0
SECTION
  2
TABLES
  0
TABLE
  2
LAYER
 70
1
  0
LAYER
  2
0
 70
     0
 62
     7
  6
CONTINUOUS
  0
ENDTAB
  0
ENDSEC
  0
SECTION
  2
ENTITIES
  0
LINE
  8
0
 62
     0
 10
0.0950846
 20
133.96
 30
0.0
 11
348.233
 21
133.96
 31
0.0
  0
LINE
  8
0
 62
     0
 10
348.233
 20
133.96
 30
0.0
 11
348.233
 21
0.135048
 31
0.0
  0
LINE
  8
0
 62
     0
 10
348.233
 20
0.135048
 30
0.0
 11
0.0950846
 21
0.135048
 31
0.0
  0
LINE
  8
0
 62
     0
 10
0.0950846
 20
0.135048
 30
0.0
 11
0.0950846
 21
133.96
 31
0.0
  0
LINE
  8
0
 62
     0
 10
300.368
 20
43.2375
 30
0.0
 11
300.368
 21
24.1873
 31
0.0
  0
LINE
  8
0
 62
     0
 10
300.368
 20
24.1873
 30
0.0
 11
281.318
 21
24.1873
 31
0.0
  0
LINE
  8
0
 62
     0
 10
281.318
 20
24.1873
 30
0.0
 11
281.318
 21
5.13457
 31
0.0
  0
LINE
  8
0
 62
     0
 10
281.318
 20
5.13457
 30
0.0
 11
338.471
 21
5.13457
 31
0.0
  0
LINE
  8
0
 62
     0
 10
338.471
 20
5.13457
 30
0.0
 11
338.471
 21
24.1873
 31
0.0
  0
LINE
  8
0
 62
     0
 10
338.471
 20
24.1873
 30
0.0
 11
319.421
 21
24.1873
 31
0.0
  0
LINE
  8
0
 62
     0
 10
319.421
 20
24.1873
 30
0.0
 11
319.421
 21
43.2375
 31
0.0
  0
LINE
  8
0
 62
     0
 10
319.421
 20
43.2375
 30
0.0
 11
300.368
 21
43.2375
 31
0.0
  0
LINE
  8
0
 62
     0
 10
5.09185
 20
86.1
 30
0.0
 11
24.146
 21
86.1
 31
0.0
  0
LINE
  8
0
 62
     0
 10
24.146
 20
86.1
 30
0.0
 11
24.146
 21
9.89845
 31
0.0
  0
LINE
  8
0
 62
     0
 10
24.146
 20
9.89845
 30
0.0
 11
5.09185
 21
9.89845
 31
0.0
  0
LINE
  8
0
 62
     0
 10
5.09185
 20
9.89845
 30
0.0
 11
5.09185
 21
86.1
 31
0.0
  0
LINE
  8
0
 62
     0
 10
28.9057
 20
105.15
 30
0.0
 11
28.9057
 21
9.89845
 31
0.0
  0
LINE
  8
0
 62
     0
 10
28.9057
 20
9.89845
 30
0.0
 11
276.557
 21
9.89845
 31
0.0
  0
LINE
  8
0
 62
     0
 10
276.557
 20
9.89845
 30
0.0
 11
276.557
 21
28.9485
 31
0.0
  0
LINE
  8
0
 62
     0
 10
276.557
 20
28.9485
 30
0.0
 11
295.607
 21
28.9485
 31
0.0
  0
LINE
  8
0
 62
     0
 10
295.607
 20
28.9485
 30
0.0
 11
295.607
 21
47.9986
 31
0.0
  0
LINE
  8
0
 62
     0
 10
295.607
 20
47.9986
 30
0.0
 11
314.657
 21
47.9986
 31
0.0
  0
LINE
  8
0
 62
     0
 10
314.657
 20
47.9986
 30
0.0
 11
314.657
 21
105.15
 31
0.0
  0
LINE
  8
0
 62
     0
 10
314.657
 20
105.15
 30
0.0
 11
28.9057
 21
105.15
 31
0.0
  0
LINE
  8
0
 62
     0
 10
324.181
 20
105.15
 30
0.0
 11
343.232
 21
105.15
 31
0.0
  0
LINE
  8
0
 62
     0
 10
343.232
 20
105.15
 30
0.0
 11
343.232
 21
28.9485
 31
0.0
  0
LINE
  8
0
 62
     0
 10
343.232
 20
28.9485
 30
0.0
 11
324.181
 21
28.9485
 31
0.0
  0
LINE
  8
0
 62
     0
 10
324.181
 20
28.9485
 30
0.0
 11
324.181
 21
105.15
 31
0.0
  0
LINE
  8
0
 62
     0
 10
28.9057
 20
128.964
 30
0.0
 11
47.957
 21
128.964
 31
0.0
  0
LINE
  8
0
 62
     0
 10
47.957
 20
128.964
 30
0.0
 11
47.957
 21
109.91
 31
0.0
  0
LINE
  8
0
 62
     0
 10
47.957
 20
109.91
 30
0.0
 11
28.9057
 21
109.91
 31
0.0
  0
LINE
  8
0
 62
     0
 10
28.9057
 20
109.91
 30
0.0
 11
28.9057
 21
128.964
 31
0.0
  0
LINE
  8
0
 62
     0
 10
52.7184
 20
128.964
 30
0.0
 11
128.921
 21
128.964
 31
0.0
  0
LINE
  8
0
 62
     0
 10
128.921
 20
128.964
 30
0.0
 11
128.921
 21
109.91
 31
0.0
  0
LINE
  8
0
 62
     0
 10
128.921
 20
109.91
 30
0.0
 11
52.7184
 21
109.91
 31
0.0
  0
LINE
  8
0
 62
     0
 10
52.7184
 20
109.91
 30
0.0
 11
52.7184
 21
128.964
 31
0.0
  0
LINE
  8
0
 62
     0
 10
133.681
 20
128.964
 30
0.0
 11
209.882
 21
128.964
 31
0.0
  0
LINE
  8
0
 62
     0
 10
209.882
 20
128.964
 30
0.0
 11
209.882
 21
109.91
 31
0.0
  0
LINE
  8
0
 62
     0
 10
209.882
 20
109.91
 30
0.0
 11
133.681
 21
109.91
 31
0.0
  0
LINE
  8
0
 62
     0
 10
133.681
 20
109.91
 30
0.0
 11
133.681
 21
128.964
 31
0.0
  0
LINE
  8
0
 62
     0
 10
214.643
 20
128.964
 30
0.0
 11
290.846
 21
128.964
 31
0.0
  0
LINE
  8
0
 62
     0
 10
290.846
 20
128.964
 30
0.0
 11
290.846
 21
109.91
 31
0.0
  0
LINE
  8
0
 62
     0
 10
290.846
 20
109.91
 30
0.0
 11
214.643
 21
109.91
 31
0.0
  0
LINE
  8
0
 62
     0
 10
214.643
 20
109.91
 30
0.0
 11
214.643
 21
128.964
 31
0.0
  0
LINE
  8
0
 62
     0
 10
295.606
 20
128.964
 30
0.0
 11
314.657
 21
128.964
 31
0.0
  0
LINE
  8
0
 62
     0
 10
314.657
 20
128.964
 30
0.0
 11
314.657
 21
109.91
 31
0.0
  0
LINE
  8
0
 62
     0
 10
314.657
 20
109.91
 30
0.0
 11
295.606
 21
109.91
 31
0.0
  0
LINE
  8
0
 62
     0
 10
295.606
 20
109.91
 30
0.0
 11
295.606
 21
128.964
 31
0.0
  0
LINE
  8
0
 62
     0
 10
324.181
 20
128.964
 30
0.0
 11
343.232
 21
128.964
 31
0.0
  0
LINE
  8
0
 62
     0
 10
343.232
 20
128.964
 30
0.0
 11
343.232
 21
109.91
 31
0.0
  0
LINE
  8
0
 62
     0
 10
343.232
 20
109.91
 30
0.0
 11
324.181
 21
109.91
 31
0.0
  0
LINE
  8
0
 62
     0
 10
324.181
 20
109.91
 30
0.0
 11
324.181
 21
128.964
 31
0.0
  0
ENDSEC
  0
EOF
