  0
SECTION
  2
HEADER
  9
$ACADVER
  1
AC1009
  9
$FILLMODE
 70
 0
  9
$SPLFRAME
 70
 1
  9
$EXTMIN
 10
0
 20
0
 30
0.0
  9
$EXTMAX
 10
1058.33
 20
1058.33
 30
0.0
  0
ENDSEC
  0
SECTION
  2
TABLES
  0
TABLE
  2
LAYER
 70
1
  0
LAYER
  2
0
 70
     0
 62
     7
  6
CONTINUOUS
  0
ENDTAB
  0
ENDSEC
  0
SECTION
  2
ENTITIES
  0
LINE
  8
0
 62
     0
 10
0.0950846
 20
133.96
 30
0.0
 11
348.233
 21
133.96
 31
0.0
  0
LINE
  8
0
 62
     0
 10
348.233
 20
133.96
 30
0.0
 11
348.233
 21
0.135048
 31
0.0
  0
LINE
  8
0
 62
     0
 10
348.233
 20
0.135048
 30
0.0
 11
0.0950846
 21
0.135048
 31
0.0
  0
LINE
  8
0
 62
     0
 10
0.0950846
 20
0.135048
 30
0.0
 11
0.0950846
 21
133.96
 31
0.0
  0
LINE
  8
0
 62
     0
 10
283.844
 20
21.6614
 30
0.0
 11
297.845
 21
21.6614
 31
0.0
  0
LINE
  8
0
 62
     0
 10
297.845
 20
21.6614
 30
0.0
 11
297.845
 21
7.6605
 31
0.0
  0
LINE
  8
0
 62
     0
 10
297.845
 20
7.6605
 30
0.0
 11
283.844
 21
7.6605
 31
0.0
  0
LINE
  8
0
 62
     0
 10
283.844
 20
7.6605
 30
0.0
 11
283.844
 21
21.6614
 31
0.0
  0
LINE
  8
0
 62
     0
 10
302.894
 20
21.6614
 30
0.0
 11
316.895
 21
21.6614
 31
0.0
  0
LINE
  8
0
 62
     0
 10
316.895
 20
21.6614
 30
0.0
 11
316.895
 21
7.6605
 31
0.0
  0
LINE
  8
0
 62
     0
 10
316.895
 20
7.6605
 30
0.0
 11
302.894
 21
7.6605
 31
0.0
  0
LINE
  8
0
 62
     0
 10
302.894
 20
7.6605
 30
0.0
 11
302.894
 21
21.6614
 31
0.0
  0
LINE
  8
0
 62
     0
 10
321.944
 20
21.6614
 30
0.0
 11
335.945
 21
21.6614
 31
0.0
  0
LINE
  8
0
 62
     0
 10
335.945
 20
21.6614
 30
0.0
 11
335.945
 21
7.6605
 31
0.0
  0
LINE
  8
0
 62
     0
 10
335.945
 20
7.6605
 30
0.0
 11
321.944
 21
7.6605
 31
0.0
  0
LINE
  8
0
 62
     0
 10
321.944
 20
7.6605
 30
0.0
 11
321.944
 21
21.6614
 31
0.0
  0
LINE
  8
0
 62
     0
 10
152.876
 20
26.4239
 30
0.0
 11
152.876
 21
21.7234
 31
0.0
  0
LINE
  8
0
 62
     0
 10
152.876
 20
21.7234
 30
0.0
 11
113.25
 21
21.7234
 31
0.0
  0
LINE
  8
0
 62
     0
 10
113.25
 20
21.7234
 30
0.0
 11
113.25
 21
24.9535
 31
0.0
  0
LINE
  8
0
 62
     0
 10
113.25
 20
24.9535
 30
0.0
 11
106.5
 21
24.9535
 31
0.0
  0
LINE
  8
0
 62
     0
 10
106.5
 20
24.9535
 30
0.0
 11
106.5
 21
21.7234
 31
0.0
  0
LINE
  8
0
 62
     0
 10
106.5
 20
21.7234
 30
0.0
 11
105.675
 21
21.7234
 31
0.0
  0
LINE
  8
0
 62
     0
 10
105.675
 20
21.7234
 30
0.0
 11
105.675
 21
18.9246
 31
0.0
  0
LINE
  8
0
 62
     0
 10
105.675
 20
18.9246
 30
0.0
 11
106.5
 21
18.9246
 31
0.0
  0
LINE
  8
0
 62
     0
 10
106.5
 20
18.9246
 30
0.0
 11
106.5
 21
12.6545
 31
0.0
  0
LINE
  8
0
 62
     0
 10
106.5
 20
12.6545
 30
0.0
 11
108.226
 21
12.6545
 31
0.0
  0
LINE
  8
0
 62
     0
 10
108.226
 20
12.6545
 30
0.0
 11
108.226
 21
11.4543
 31
0.0
  0
LINE
  8
0
 62
     0
 10
108.226
 20
11.4543
 30
0.0
 11
111.526
 21
11.4543
 31
0.0
  0
LINE
  8
0
 62
     0
 10
111.526
 20
11.4543
 30
0.0
 11
111.526
 21
12.6545
 31
0.0
  0
LINE
  8
0
 62
     0
 10
111.526
 20
12.6545
 30
0.0
 11
113.25
 21
12.6545
 31
0.0
  0
LINE
  8
0
 62
     0
 10
113.25
 20
12.6545
 30
0.0
 11
113.25
 21
17.1235
 31
0.0
  0
LINE
  8
0
 62
     0
 10
113.25
 20
17.1235
 30
0.0
 11
152.876
 21
17.1235
 31
0.0
  0
LINE
  8
0
 62
     0
 10
152.876
 20
17.1235
 30
0.0
 11
152.876
 21
12.4244
 31
0.0
  0
LINE
  8
0
 62
     0
 10
152.876
 20
12.4244
 30
0.0
 11
166.875
 21
12.4244
 31
0.0
  0
LINE
  8
0
 62
     0
 10
166.875
 20
12.4244
 30
0.0
 11
166.875
 21
17.1235
 31
0.0
  0
LINE
  8
0
 62
     0
 10
166.875
 20
17.1235
 30
0.0
 11
206.5
 21
17.1235
 31
0.0
  0
LINE
  8
0
 62
     0
 10
206.5
 20
17.1235
 30
0.0
 11
206.5
 21
12.6545
 31
0.0
  0
LINE
  8
0
 62
     0
 10
206.5
 20
12.6545
 30
0.0
 11
208.226
 21
12.6545
 31
0.0
  0
LINE
  8
0
 62
     0
 10
208.226
 20
12.6545
 30
0.0
 11
208.226
 21
11.4543
 31
0.0
  0
LINE
  8
0
 62
     0
 10
208.226
 20
11.4543
 30
0.0
 11
211.526
 21
11.4543
 31
0.0
  0
LINE
  8
0
 62
     0
 10
211.526
 20
11.4543
 30
0.0
 11
211.526
 21
12.6545
 31
0.0
  0
LINE
  8
0
 62
     0
 10
211.526
 20
12.6545
 30
0.0
 11
213.25
 21
12.6545
 31
0.0
  0
LINE
  8
0
 62
     0
 10
213.25
 20
12.6545
 30
0.0
 11
213.25
 21
18.9246
 31
0.0
  0
LINE
  8
0
 62
     0
 10
213.25
 20
18.9246
 30
0.0
 11
214.075
 21
18.9246
 31
0.0
  0
LINE
  8
0
 62
     0
 10
214.075
 20
18.9246
 30
0.0
 11
214.075
 21
21.7234
 31
0.0
  0
LINE
  8
0
 62
     0
 10
214.075
 20
21.7234
 30
0.0
 11
213.25
 21
21.7234
 31
0.0
  0
LINE
  8
0
 62
     0
 10
213.25
 20
21.7234
 30
0.0
 11
213.25
 21
24.9535
 31
0.0
  0
LINE
  8
0
 62
     0
 10
213.25
 20
24.9535
 30
0.0
 11
206.5
 21
24.9535
 31
0.0
  0
LINE
  8
0
 62
     0
 10
206.5
 20
24.9535
 30
0.0
 11
206.5
 21
21.7234
 31
0.0
  0
LINE
  8
0
 62
     0
 10
206.5
 20
21.7234
 30
0.0
 11
166.875
 21
21.7234
 31
0.0
  0
LINE
  8
0
 62
     0
 10
166.875
 20
21.7234
 30
0.0
 11
166.875
 21
26.4239
 31
0.0
  0
LINE
  8
0
 62
     0
 10
166.875
 20
26.4239
 30
0.0
 11
152.876
 21
26.4239
 31
0.0
  0
LINE
  8
0
 62
     0
 10
7.61919
 20
26.4239
 30
0.0
 11
21.6201
 21
26.4239
 31
0.0
  0
LINE
  8
0
 62
     0
 10
21.6201
 20
26.4239
 30
0.0
 11
21.6201
 21
12.4244
 31
0.0
  0
LINE
  8
0
 62
     0
 10
21.6201
 20
12.4244
 30
0.0
 11
7.61919
 21
12.4244
 31
0.0
  0
LINE
  8
0
 62
     0
 10
7.61919
 20
12.4244
 30
0.0
 11
7.61919
 21
26.4239
 31
0.0
  0
LINE
  8
0
 62
     0
 10
33.8129
 20
26.4239
 30
0.0
 11
47.8123
 21
26.4239
 31
0.0
  0
LINE
  8
0
 62
     0
 10
47.8123
 20
26.4239
 30
0.0
 11
47.8123
 21
12.4244
 31
0.0
  0
LINE
  8
0
 62
     0
 10
47.8123
 20
12.4244
 30
0.0
 11
33.8129
 21
12.4244
 31
0.0
  0
LINE
  8
0
 62
     0
 10
33.8129
 20
12.4244
 30
0.0
 11
33.8129
 21
26.4239
 31
0.0
  0
LINE
  8
0
 62
     0
 10
57.6255
 20
26.4239
 30
0.0
 11
71.6248
 21
26.4239
 31
0.0
  0
LINE
  8
0
 62
     0
 10
71.6248
 20
26.4239
 30
0.0
 11
71.6248
 21
12.4244
 31
0.0
  0
LINE
  8
0
 62
     0
 10
71.6248
 20
12.4244
 30
0.0
 11
57.6255
 21
12.4244
 31
0.0
  0
LINE
  8
0
 62
     0
 10
57.6255
 20
12.4244
 30
0.0
 11
57.6255
 21
26.4239
 31
0.0
  0
LINE
  8
0
 62
     0
 10
81.438
 20
26.4239
 30
0.0
 11
95.4373
 21
26.4239
 31
0.0
  0
LINE
  8
0
 62
     0
 10
95.4373
 20
26.4239
 30
0.0
 11
95.4373
 21
12.4244
 31
0.0
  0
LINE
  8
0
 62
     0
 10
95.4373
 20
12.4244
 30
0.0
 11
81.438
 21
12.4244
 31
0.0
  0
LINE
  8
0
 62
     0
 10
81.438
 20
12.4244
 30
0.0
 11
81.438
 21
26.4239
 31
0.0
  0
LINE
  8
0
 62
     0
 10
221.932
 20
26.4239
 30
0.0
 11
235.931
 21
26.4239
 31
0.0
  0
LINE
  8
0
 62
     0
 10
235.931
 20
26.4239
 30
0.0
 11
235.931
 21
12.4244
 31
0.0
  0
LINE
  8
0
 62
     0
 10
235.931
 20
12.4244
 30
0.0
 11
221.932
 21
12.4244
 31
0.0
  0
LINE
  8
0
 62
     0
 10
221.932
 20
12.4244
 30
0.0
 11
221.932
 21
26.4239
 31
0.0
  0
LINE
  8
0
 62
     0
 10
240.982
 20
26.4239
 30
0.0
 11
254.981
 21
26.4239
 31
0.0
  0
LINE
  8
0
 62
     0
 10
254.981
 20
26.4239
 30
0.0
 11
254.981
 21
12.4244
 31
0.0
  0
LINE
  8
0
 62
     0
 10
254.981
 20
12.4244
 30
0.0
 11
240.982
 21
12.4244
 31
0.0
  0
LINE
  8
0
 62
     0
 10
240.982
 20
12.4244
 30
0.0
 11
240.982
 21
26.4239
 31
0.0
  0
LINE
  8
0
 62
     0
 10
260.032
 20
26.4239
 30
0.0
 11
274.031
 21
26.4239
 31
0.0
  0
LINE
  8
0
 62
     0
 10
274.031
 20
26.4239
 30
0.0
 11
274.031
 21
12.4244
 31
0.0
  0
LINE
  8
0
 62
     0
 10
274.031
 20
12.4244
 30
0.0
 11
260.032
 21
12.4244
 31
0.0
  0
LINE
  8
0
 62
     0
 10
260.032
 20
12.4244
 30
0.0
 11
260.032
 21
26.4239
 31
0.0
  0
LINE
  8
0
 62
     0
 10
302.894
 20
40.7113
 30
0.0
 11
316.895
 21
40.7113
 31
0.0
  0
LINE
  8
0
 62
     0
 10
316.895
 20
40.7113
 30
0.0
 11
316.895
 21
26.7105
 31
0.0
  0
LINE
  8
0
 62
     0
 10
316.895
 20
26.7105
 30
0.0
 11
302.894
 21
26.7105
 31
0.0
  0
LINE
  8
0
 62
     0
 10
302.894
 20
26.7105
 30
0.0
 11
302.894
 21
40.7113
 31
0.0
  0
LINE
  8
0
 62
     0
 10
43.338
 20
45.4738
 30
0.0
 11
43.338
 21
40.7734
 31
0.0
  0
LINE
  8
0
 62
     0
 10
43.338
 20
40.7734
 30
0.0
 11
41.8123
 21
40.7734
 31
0.0
  0
LINE
  8
0
 62
     0
 10
41.8123
 20
40.7734
 30
0.0
 11
41.8123
 21
44.0034
 31
0.0
  0
LINE
  8
0
 62
     0
 10
41.8123
 20
44.0034
 30
0.0
 11
35.0628
 21
44.0034
 31
0.0
  0
LINE
  8
0
 62
     0
 10
35.0628
 20
44.0034
 30
0.0
 11
35.0628
 21
40.7734
 31
0.0
  0
LINE
  8
0
 62
     0
 10
35.0628
 20
40.7734
 30
0.0
 11
34.2374
 21
40.7734
 31
0.0
  0
LINE
  8
0
 62
     0
 10
34.2374
 20
40.7734
 30
0.0
 11
34.2374
 21
37.9748
 31
0.0
  0
LINE
  8
0
 62
     0
 10
34.2374
 20
37.9748
 30
0.0
 11
35.0628
 21
37.9748
 31
0.0
  0
LINE
  8
0
 62
     0
 10
35.0628
 20
37.9748
 30
0.0
 11
35.0628
 21
31.7045
 31
0.0
  0
LINE
  8
0
 62
     0
 10
35.0628
 20
31.7045
 30
0.0
 11
36.788
 21
31.7045
 31
0.0
  0
LINE
  8
0
 62
     0
 10
36.788
 20
31.7045
 30
0.0
 11
36.788
 21
30.5043
 31
0.0
  0
LINE
  8
0
 62
     0
 10
36.788
 20
30.5043
 30
0.0
 11
40.0872
 21
30.5043
 31
0.0
  0
LINE
  8
0
 62
     0
 10
40.0872
 20
30.5043
 30
0.0
 11
40.0872
 21
31.7045
 31
0.0
  0
LINE
  8
0
 62
     0
 10
40.0872
 20
31.7045
 30
0.0
 11
41.8123
 21
31.7045
 31
0.0
  0
LINE
  8
0
 62
     0
 10
41.8123
 20
31.7045
 30
0.0
 11
41.8123
 21
36.1735
 31
0.0
  0
LINE
  8
0
 62
     0
 10
41.8123
 20
36.1735
 30
0.0
 11
43.338
 21
36.1735
 31
0.0
  0
LINE
  8
0
 62
     0
 10
43.338
 20
36.1735
 30
0.0
 11
43.338
 21
31.4744
 31
0.0
  0
LINE
  8
0
 62
     0
 10
43.338
 20
31.4744
 30
0.0
 11
57.3373
 21
31.4744
 31
0.0
  0
LINE
  8
0
 62
     0
 10
57.3373
 20
31.4744
 30
0.0
 11
57.3373
 21
36.1735
 31
0.0
  0
LINE
  8
0
 62
     0
 10
57.3373
 20
36.1735
 30
0.0
 11
58.8627
 21
36.1735
 31
0.0
  0
LINE
  8
0
 62
     0
 10
58.8627
 20
36.1735
 30
0.0
 11
58.8627
 21
31.7045
 31
0.0
  0
LINE
  8
0
 62
     0
 10
58.8627
 20
31.7045
 30
0.0
 11
60.5868
 21
31.7045
 31
0.0
  0
LINE
  8
0
 62
     0
 10
60.5868
 20
31.7045
 30
0.0
 11
60.5868
 21
30.5043
 31
0.0
  0
LINE
  8
0
 62
     0
 10
60.5868
 20
30.5043
 30
0.0
 11
63.8874
 21
30.5043
 31
0.0
  0
LINE
  8
0
 62
     0
 10
63.8874
 20
30.5043
 30
0.0
 11
63.8874
 21
31.7045
 31
0.0
  0
LINE
  8
0
 62
     0
 10
63.8874
 20
31.7045
 30
0.0
 11
65.6124
 21
31.7045
 31
0.0
  0
LINE
  8
0
 62
     0
 10
65.6124
 20
31.7045
 30
0.0
 11
65.6124
 21
37.9748
 31
0.0
  0
LINE
  8
0
 62
     0
 10
65.6124
 20
37.9748
 30
0.0
 11
66.4379
 21
37.9748
 31
0.0
  0
LINE
  8
0
 62
     0
 10
66.4379
 20
37.9748
 30
0.0
 11
66.4379
 21
40.7734
 31
0.0
  0
LINE
  8
0
 62
     0
 10
66.4379
 20
40.7734
 30
0.0
 11
65.6124
 21
40.7734
 31
0.0
  0
LINE
  8
0
 62
     0
 10
65.6124
 20
40.7734
 30
0.0
 11
65.6124
 21
44.0034
 31
0.0
  0
LINE
  8
0
 62
     0
 10
65.6124
 20
44.0034
 30
0.0
 11
58.8627
 21
44.0034
 31
0.0
  0
LINE
  8
0
 62
     0
 10
58.8627
 20
44.0034
 30
0.0
 11
58.8627
 21
40.7734
 31
0.0
  0
LINE
  8
0
 62
     0
 10
58.8627
 20
40.7734
 30
0.0
 11
57.3373
 21
40.7734
 31
0.0
  0
LINE
  8
0
 62
     0
 10
57.3373
 20
40.7734
 30
0.0
 11
57.3373
 21
45.4738
 31
0.0
  0
LINE
  8
0
 62
     0
 10
57.3373
 20
45.4738
 30
0.0
 11
43.338
 21
45.4738
 31
0.0
  0
LINE
  8
0
 62
     0
 10
7.61919
 20
45.4738
 30
0.0
 11
21.6201
 21
45.4738
 31
0.0
  0
LINE
  8
0
 62
     0
 10
21.6201
 20
45.4738
 30
0.0
 11
21.6201
 21
31.4744
 31
0.0
  0
LINE
  8
0
 62
     0
 10
21.6201
 20
31.4744
 30
0.0
 11
7.61919
 21
31.4744
 31
0.0
  0
LINE
  8
0
 62
     0
 10
7.61919
 20
31.4744
 30
0.0
 11
7.61919
 21
45.4738
 31
0.0
  0
LINE
  8
0
 62
     0
 10
74.2943
 20
45.4738
 30
0.0
 11
88.295
 21
45.4738
 31
0.0
  0
LINE
  8
0
 62
     0
 10
88.295
 20
45.4738
 30
0.0
 11
88.295
 21
31.4744
 31
0.0
  0
LINE
  8
0
 62
     0
 10
88.295
 20
31.4744
 30
0.0
 11
74.2943
 21
31.4744
 31
0.0
  0
LINE
  8
0
 62
     0
 10
74.2943
 20
31.4744
 30
0.0
 11
74.2943
 21
45.4738
 31
0.0
  0
LINE
  8
0
 62
     0
 10
93.3443
 20
45.4738
 30
0.0
 11
107.345
 21
45.4738
 31
0.0
  0
LINE
  8
0
 62
     0
 10
107.345
 20
45.4738
 30
0.0
 11
107.345
 21
31.4744
 31
0.0
  0
LINE
  8
0
 62
     0
 10
107.345
 20
31.4744
 30
0.0
 11
93.3443
 21
31.4744
 31
0.0
  0
LINE
  8
0
 62
     0
 10
93.3443
 20
31.4744
 30
0.0
 11
93.3443
 21
45.4738
 31
0.0
  0
LINE
  8
0
 62
     0
 10
112.394
 20
45.4738
 30
0.0
 11
126.395
 21
45.4738
 31
0.0
  0
LINE
  8
0
 62
     0
 10
126.395
 20
45.4738
 30
0.0
 11
126.395
 21
31.4744
 31
0.0
  0
LINE
  8
0
 62
     0
 10
126.395
 20
31.4744
 30
0.0
 11
112.394
 21
31.4744
 31
0.0
  0
LINE
  8
0
 62
     0
 10
112.394
 20
31.4744
 30
0.0
 11
112.394
 21
45.4738
 31
0.0
  0
LINE
  8
0
 62
     0
 10
131.444
 20
45.4738
 30
0.0
 11
145.445
 21
45.4738
 31
0.0
  0
LINE
  8
0
 62
     0
 10
145.445
 20
45.4738
 30
0.0
 11
145.445
 21
31.4744
 31
0.0
  0
LINE
  8
0
 62
     0
 10
145.445
 20
31.4744
 30
0.0
 11
131.444
 21
31.4744
 31
0.0
  0
LINE
  8
0
 62
     0
 10
131.444
 20
31.4744
 30
0.0
 11
131.444
 21
45.4738
 31
0.0
  0
LINE
  8
0
 62
     0
 10
150.494
 20
45.4738
 30
0.0
 11
164.495
 21
45.4738
 31
0.0
  0
LINE
  8
0
 62
     0
 10
164.495
 20
45.4738
 30
0.0
 11
164.495
 21
31.4744
 31
0.0
  0
LINE
  8
0
 62
     0
 10
164.495
 20
31.4744
 30
0.0
 11
150.494
 21
31.4744
 31
0.0
  0
LINE
  8
0
 62
     0
 10
150.494
 20
31.4744
 30
0.0
 11
150.494
 21
45.4738
 31
0.0
  0
LINE
  8
0
 62
     0
 10
169.544
 20
45.4738
 30
0.0
 11
183.545
 21
45.4738
 31
0.0
  0
LINE
  8
0
 62
     0
 10
183.545
 20
45.4738
 30
0.0
 11
183.545
 21
31.4744
 31
0.0
  0
LINE
  8
0
 62
     0
 10
183.545
 20
31.4744
 30
0.0
 11
169.544
 21
31.4744
 31
0.0
  0
LINE
  8
0
 62
     0
 10
169.544
 20
31.4744
 30
0.0
 11
169.544
 21
45.4738
 31
0.0
  0
LINE
  8
0
 62
     0
 10
188.594
 20
45.4738
 30
0.0
 11
202.595
 21
45.4738
 31
0.0
  0
LINE
  8
0
 62
     0
 10
202.595
 20
45.4738
 30
0.0
 11
202.595
 21
31.4744
 31
0.0
  0
LINE
  8
0
 62
     0
 10
202.595
 20
31.4744
 30
0.0
 11
188.594
 21
31.4744
 31
0.0
  0
LINE
  8
0
 62
     0
 10
188.594
 20
31.4744
 30
0.0
 11
188.594
 21
45.4738
 31
0.0
  0
LINE
  8
0
 62
     0
 10
207.644
 20
45.4738
 30
0.0
 11
221.645
 21
45.4738
 31
0.0
  0
LINE
  8
0
 62
     0
 10
221.645
 20
45.4738
 30
0.0
 11
221.645
 21
31.4744
 31
0.0
  0
LINE
  8
0
 62
     0
 10
221.645
 20
31.4744
 30
0.0
 11
207.644
 21
31.4744
 31
0.0
  0
LINE
  8
0
 62
     0
 10
207.644
 20
31.4744
 30
0.0
 11
207.644
 21
45.4738
 31
0.0
  0
LINE
  8
0
 62
     0
 10
226.694
 20
45.4738
 30
0.0
 11
240.695
 21
45.4738
 31
0.0
  0
LINE
  8
0
 62
     0
 10
240.695
 20
45.4738
 30
0.0
 11
240.695
 21
31.4744
 31
0.0
  0
LINE
  8
0
 62
     0
 10
240.695
 20
31.4744
 30
0.0
 11
226.694
 21
31.4744
 31
0.0
  0
LINE
  8
0
 62
     0
 10
226.694
 20
31.4744
 30
0.0
 11
226.694
 21
45.4738
 31
0.0
  0
LINE
  8
0
 62
     0
 10
245.744
 20
45.4738
 30
0.0
 11
259.745
 21
45.4738
 31
0.0
  0
LINE
  8
0
 62
     0
 10
259.745
 20
45.4738
 30
0.0
 11
259.745
 21
31.4744
 31
0.0
  0
LINE
  8
0
 62
     0
 10
259.745
 20
31.4744
 30
0.0
 11
245.744
 21
31.4744
 31
0.0
  0
LINE
  8
0
 62
     0
 10
245.744
 20
31.4744
 30
0.0
 11
245.744
 21
45.4738
 31
0.0
  0
LINE
  8
0
 62
     0
 10
271.938
 20
45.4738
 30
0.0
 11
285.937
 21
45.4738
 31
0.0
  0
LINE
  8
0
 62
     0
 10
285.937
 20
45.4738
 30
0.0
 11
285.937
 21
31.4744
 31
0.0
  0
LINE
  8
0
 62
     0
 10
285.937
 20
31.4744
 30
0.0
 11
271.938
 21
31.4744
 31
0.0
  0
LINE
  8
0
 62
     0
 10
271.938
 20
31.4744
 30
0.0
 11
271.938
 21
45.4738
 31
0.0
  0
LINE
  8
0
 62
     0
 10
326.707
 20
45.4738
 30
0.0
 11
340.706
 21
45.4738
 31
0.0
  0
LINE
  8
0
 62
     0
 10
340.706
 20
45.4738
 30
0.0
 11
340.706
 21
31.4744
 31
0.0
  0
LINE
  8
0
 62
     0
 10
340.706
 20
31.4744
 30
0.0
 11
326.707
 21
31.4744
 31
0.0
  0
LINE
  8
0
 62
     0
 10
326.707
 20
31.4744
 30
0.0
 11
326.707
 21
45.4738
 31
0.0
  0
LINE
  8
0
 62
     0
 10
286.226
 20
64.5238
 30
0.0
 11
286.226
 21
59.8234
 31
0.0
  0
LINE
  8
0
 62
     0
 10
286.226
 20
59.8234
 30
0.0
 11
284.7
 21
59.8234
 31
0.0
  0
LINE
  8
0
 62
     0
 10
284.7
 20
59.8234
 30
0.0
 11
284.7
 21
63.0534
 31
0.0
  0
LINE
  8
0
 62
     0
 10
284.7
 20
63.0534
 30
0.0
 11
277.95
 21
63.0534
 31
0.0
  0
LINE
  8
0
 62
     0
 10
277.95
 20
63.0534
 30
0.0
 11
277.95
 21
59.8234
 31
0.0
  0
LINE
  8
0
 62
     0
 10
277.95
 20
59.8234
 30
0.0
 11
277.125
 21
59.8234
 31
0.0
  0
LINE
  8
0
 62
     0
 10
277.125
 20
59.8234
 30
0.0
 11
277.125
 21
57.0248
 31
0.0
  0
LINE
  8
0
 62
     0
 10
277.125
 20
57.0248
 30
0.0
 11
277.95
 21
57.0248
 31
0.0
  0
LINE
  8
0
 62
     0
 10
277.95
 20
57.0248
 30
0.0
 11
277.95
 21
50.7545
 31
0.0
  0
LINE
  8
0
 62
     0
 10
277.95
 20
50.7545
 30
0.0
 11
279.676
 21
50.7545
 31
0.0
  0
LINE
  8
0
 62
     0
 10
279.676
 20
50.7545
 30
0.0
 11
279.676
 21
49.5543
 31
0.0
  0
LINE
  8
0
 62
     0
 10
279.676
 20
49.5543
 30
0.0
 11
282.976
 21
49.5543
 31
0.0
  0
LINE
  8
0
 62
     0
 10
282.976
 20
49.5543
 30
0.0
 11
282.976
 21
50.7545
 31
0.0
  0
LINE
  8
0
 62
     0
 10
282.976
 20
50.7545
 30
0.0
 11
284.7
 21
50.7545
 31
0.0
  0
LINE
  8
0
 62
     0
 10
284.7
 20
50.7545
 30
0.0
 11
284.7
 21
55.2235
 31
0.0
  0
LINE
  8
0
 62
     0
 10
284.7
 20
55.2235
 30
0.0
 11
286.226
 21
55.2235
 31
0.0
  0
LINE
  8
0
 62
     0
 10
286.226
 20
55.2235
 30
0.0
 11
286.226
 21
50.5245
 31
0.0
  0
LINE
  8
0
 62
     0
 10
286.226
 20
50.5245
 30
0.0
 11
300.225
 21
50.5245
 31
0.0
  0
LINE
  8
0
 62
     0
 10
300.225
 20
50.5245
 30
0.0
 11
300.225
 21
55.2235
 31
0.0
  0
LINE
  8
0
 62
     0
 10
300.225
 20
55.2235
 30
0.0
 11
301.75
 21
55.2235
 31
0.0
  0
LINE
  8
0
 62
     0
 10
301.75
 20
55.2235
 30
0.0
 11
301.75
 21
50.7545
 31
0.0
  0
LINE
  8
0
 62
     0
 10
301.75
 20
50.7545
 30
0.0
 11
303.476
 21
50.7545
 31
0.0
  0
LINE
  8
0
 62
     0
 10
303.476
 20
50.7545
 30
0.0
 11
303.476
 21
49.5543
 31
0.0
  0
LINE
  8
0
 62
     0
 10
303.476
 20
49.5543
 30
0.0
 11
306.776
 21
49.5543
 31
0.0
  0
LINE
  8
0
 62
     0
 10
306.776
 20
49.5543
 30
0.0
 11
306.776
 21
50.7545
 31
0.0
  0
LINE
  8
0
 62
     0
 10
306.776
 20
50.7545
 30
0.0
 11
308.5
 21
50.7545
 31
0.0
  0
LINE
  8
0
 62
     0
 10
308.5
 20
50.7545
 30
0.0
 11
308.5
 21
57.0248
 31
0.0
  0
LINE
  8
0
 62
     0
 10
308.5
 20
57.0248
 30
0.0
 11
309.325
 21
57.0248
 31
0.0
  0
LINE
  8
0
 62
     0
 10
309.325
 20
57.0248
 30
0.0
 11
309.325
 21
59.8234
 31
0.0
  0
LINE
  8
0
 62
     0
 10
309.325
 20
59.8234
 30
0.0
 11
308.5
 21
59.8234
 31
0.0
  0
LINE
  8
0
 62
     0
 10
308.5
 20
59.8234
 30
0.0
 11
308.5
 21
63.0534
 31
0.0
  0
LINE
  8
0
 62
     0
 10
308.5
 20
63.0534
 30
0.0
 11
301.75
 21
63.0534
 31
0.0
  0
LINE
  8
0
 62
     0
 10
301.75
 20
63.0534
 30
0.0
 11
301.75
 21
59.8234
 31
0.0
  0
LINE
  8
0
 62
     0
 10
301.75
 20
59.8234
 30
0.0
 11
300.225
 21
59.8234
 31
0.0
  0
LINE
  8
0
 62
     0
 10
300.225
 20
59.8234
 30
0.0
 11
300.225
 21
64.5238
 31
0.0
  0
LINE
  8
0
 62
     0
 10
300.225
 20
64.5238
 30
0.0
 11
286.226
 21
64.5238
 31
0.0
  0
LINE
  8
0
 62
     0
 10
7.61919
 20
64.5238
 30
0.0
 11
21.6201
 21
64.5238
 31
0.0
  0
LINE
  8
0
 62
     0
 10
21.6201
 20
64.5238
 30
0.0
 11
21.6201
 21
50.5245
 31
0.0
  0
LINE
  8
0
 62
     0
 10
21.6201
 20
50.5245
 30
0.0
 11
7.61919
 21
50.5245
 31
0.0
  0
LINE
  8
0
 62
     0
 10
7.61919
 20
50.5245
 30
0.0
 11
7.61919
 21
64.5238
 31
0.0
  0
LINE
  8
0
 62
     0
 10
38.5755
 20
64.5238
 30
0.0
 11
52.5748
 21
64.5238
 31
0.0
  0
LINE
  8
0
 62
     0
 10
52.5748
 20
64.5238
 30
0.0
 11
52.5748
 21
50.5245
 31
0.0
  0
LINE
  8
0
 62
     0
 10
52.5748
 20
50.5245
 30
0.0
 11
38.5755
 21
50.5245
 31
0.0
  0
LINE
  8
0
 62
     0
 10
38.5755
 20
50.5245
 30
0.0
 11
38.5755
 21
64.5238
 31
0.0
  0
LINE
  8
0
 62
     0
 10
64.7693
 20
64.5238
 30
0.0
 11
78.77
 21
64.5238
 31
0.0
  0
LINE
  8
0
 62
     0
 10
78.77
 20
64.5238
 30
0.0
 11
78.77
 21
50.5245
 31
0.0
  0
LINE
  8
0
 62
     0
 10
78.77
 20
50.5245
 30
0.0
 11
64.7693
 21
50.5245
 31
0.0
  0
LINE
  8
0
 62
     0
 10
64.7693
 20
50.5245
 30
0.0
 11
64.7693
 21
64.5238
 31
0.0
  0
LINE
  8
0
 62
     0
 10
83.8193
 20
64.5238
 30
0.0
 11
97.82
 21
64.5238
 31
0.0
  0
LINE
  8
0
 62
     0
 10
97.82
 20
64.5238
 30
0.0
 11
97.82
 21
50.5245
 31
0.0
  0
LINE
  8
0
 62
     0
 10
97.82
 20
50.5245
 30
0.0
 11
83.8193
 21
50.5245
 31
0.0
  0
LINE
  8
0
 62
     0
 10
83.8193
 20
50.5245
 30
0.0
 11
83.8193
 21
64.5238
 31
0.0
  0
LINE
  8
0
 62
     0
 10
102.869
 20
64.5238
 30
0.0
 11
116.87
 21
64.5238
 31
0.0
  0
LINE
  8
0
 62
     0
 10
116.87
 20
64.5238
 30
0.0
 11
116.87
 21
50.5245
 31
0.0
  0
LINE
  8
0
 62
     0
 10
116.87
 20
50.5245
 30
0.0
 11
102.869
 21
50.5245
 31
0.0
  0
LINE
  8
0
 62
     0
 10
102.869
 20
50.5245
 30
0.0
 11
102.869
 21
64.5238
 31
0.0
  0
LINE
  8
0
 62
     0
 10
121.919
 20
64.5238
 30
0.0
 11
135.92
 21
64.5238
 31
0.0
  0
LINE
  8
0
 62
     0
 10
135.92
 20
64.5238
 30
0.0
 11
135.92
 21
50.5245
 31
0.0
  0
LINE
  8
0
 62
     0
 10
135.92
 20
50.5245
 30
0.0
 11
121.919
 21
50.5245
 31
0.0
  0
LINE
  8
0
 62
     0
 10
121.919
 20
50.5245
 30
0.0
 11
121.919
 21
64.5238
 31
0.0
  0
LINE
  8
0
 62
     0
 10
140.969
 20
64.5238
 30
0.0
 11
154.97
 21
64.5238
 31
0.0
  0
LINE
  8
0
 62
     0
 10
154.97
 20
64.5238
 30
0.0
 11
154.97
 21
50.5245
 31
0.0
  0
LINE
  8
0
 62
     0
 10
154.97
 20
50.5245
 30
0.0
 11
140.969
 21
50.5245
 31
0.0
  0
LINE
  8
0
 62
     0
 10
140.969
 20
50.5245
 30
0.0
 11
140.969
 21
64.5238
 31
0.0
  0
LINE
  8
0
 62
     0
 10
160.019
 20
64.5238
 30
0.0
 11
174.02
 21
64.5238
 31
0.0
  0
LINE
  8
0
 62
     0
 10
174.02
 20
64.5238
 30
0.0
 11
174.02
 21
50.5245
 31
0.0
  0
LINE
  8
0
 62
     0
 10
174.02
 20
50.5245
 30
0.0
 11
160.019
 21
50.5245
 31
0.0
  0
LINE
  8
0
 62
     0
 10
160.019
 20
50.5245
 30
0.0
 11
160.019
 21
64.5238
 31
0.0
  0
LINE
  8
0
 62
     0
 10
179.069
 20
64.5238
 30
0.0
 11
193.07
 21
64.5238
 31
0.0
  0
LINE
  8
0
 62
     0
 10
193.07
 20
64.5238
 30
0.0
 11
193.07
 21
50.5245
 31
0.0
  0
LINE
  8
0
 62
     0
 10
193.07
 20
50.5245
 30
0.0
 11
179.069
 21
50.5245
 31
0.0
  0
LINE
  8
0
 62
     0
 10
179.069
 20
50.5245
 30
0.0
 11
179.069
 21
64.5238
 31
0.0
  0
LINE
  8
0
 62
     0
 10
198.119
 20
64.5238
 30
0.0
 11
212.12
 21
64.5238
 31
0.0
  0
LINE
  8
0
 62
     0
 10
212.12
 20
64.5238
 30
0.0
 11
212.12
 21
50.5245
 31
0.0
  0
LINE
  8
0
 62
     0
 10
212.12
 20
50.5245
 30
0.0
 11
198.119
 21
50.5245
 31
0.0
  0
LINE
  8
0
 62
     0
 10
198.119
 20
50.5245
 30
0.0
 11
198.119
 21
64.5238
 31
0.0
  0
LINE
  8
0
 62
     0
 10
217.169
 20
64.5238
 30
0.0
 11
231.17
 21
64.5238
 31
0.0
  0
LINE
  8
0
 62
     0
 10
231.17
 20
64.5238
 30
0.0
 11
231.17
 21
50.5245
 31
0.0
  0
LINE
  8
0
 62
     0
 10
231.17
 20
50.5245
 30
0.0
 11
217.169
 21
50.5245
 31
0.0
  0
LINE
  8
0
 62
     0
 10
217.169
 20
50.5245
 30
0.0
 11
217.169
 21
64.5238
 31
0.0
  0
LINE
  8
0
 62
     0
 10
236.219
 20
64.5238
 30
0.0
 11
250.22
 21
64.5238
 31
0.0
  0
LINE
  8
0
 62
     0
 10
250.22
 20
64.5238
 30
0.0
 11
250.22
 21
50.5245
 31
0.0
  0
LINE
  8
0
 62
     0
 10
250.22
 20
50.5245
 30
0.0
 11
236.219
 21
50.5245
 31
0.0
  0
LINE
  8
0
 62
     0
 10
236.219
 20
50.5245
 30
0.0
 11
236.219
 21
64.5238
 31
0.0
  0
LINE
  8
0
 62
     0
 10
255.269
 20
64.5238
 30
0.0
 11
269.27
 21
64.5238
 31
0.0
  0
LINE
  8
0
 62
     0
 10
269.27
 20
64.5238
 30
0.0
 11
269.27
 21
50.5245
 31
0.0
  0
LINE
  8
0
 62
     0
 10
269.27
 20
50.5245
 30
0.0
 11
255.269
 21
50.5245
 31
0.0
  0
LINE
  8
0
 62
     0
 10
255.269
 20
50.5245
 30
0.0
 11
255.269
 21
64.5238
 31
0.0
  0
LINE
  8
0
 62
     0
 10
326.707
 20
64.5238
 30
0.0
 11
340.706
 21
64.5238
 31
0.0
  0
LINE
  8
0
 62
     0
 10
340.706
 20
64.5238
 30
0.0
 11
340.706
 21
50.5245
 31
0.0
  0
LINE
  8
0
 62
     0
 10
340.706
 20
50.5245
 30
0.0
 11
326.707
 21
50.5245
 31
0.0
  0
LINE
  8
0
 62
     0
 10
326.707
 20
50.5245
 30
0.0
 11
326.707
 21
64.5238
 31
0.0
  0
LINE
  8
0
 62
     0
 10
7.61919
 20
83.5738
 30
0.0
 11
21.6201
 21
83.5738
 31
0.0
  0
LINE
  8
0
 62
     0
 10
21.6201
 20
83.5738
 30
0.0
 11
21.6201
 21
69.5745
 31
0.0
  0
LINE
  8
0
 62
     0
 10
21.6201
 20
69.5745
 30
0.0
 11
7.61919
 21
69.5745
 31
0.0
  0
LINE
  8
0
 62
     0
 10
7.61919
 20
69.5745
 30
0.0
 11
7.61919
 21
83.5738
 31
0.0
  0
LINE
  8
0
 62
     0
 10
36.1943
 20
83.5738
 30
0.0
 11
50.195
 21
83.5738
 31
0.0
  0
LINE
  8
0
 62
     0
 10
50.195
 20
83.5738
 30
0.0
 11
50.195
 21
69.5745
 31
0.0
  0
LINE
  8
0
 62
     0
 10
50.195
 20
69.5745
 30
0.0
 11
36.1943
 21
69.5745
 31
0.0
  0
LINE
  8
0
 62
     0
 10
36.1943
 20
69.5745
 30
0.0
 11
36.1943
 21
83.5738
 31
0.0
  0
LINE
  8
0
 62
     0
 10
60.0068
 20
83.5738
 30
0.0
 11
74.0061
 21
83.5738
 31
0.0
  0
LINE
  8
0
 62
     0
 10
74.0061
 20
83.5738
 30
0.0
 11
74.0061
 21
69.5745
 31
0.0
  0
LINE
  8
0
 62
     0
 10
74.0061
 20
69.5745
 30
0.0
 11
60.0068
 21
69.5745
 31
0.0
  0
LINE
  8
0
 62
     0
 10
60.0068
 20
69.5745
 30
0.0
 11
60.0068
 21
83.5738
 31
0.0
  0
LINE
  8
0
 62
     0
 10
79.0568
 20
83.5738
 30
0.0
 11
93.0561
 21
83.5738
 31
0.0
  0
LINE
  8
0
 62
     0
 10
93.0561
 20
83.5738
 30
0.0
 11
93.0561
 21
69.5745
 31
0.0
  0
LINE
  8
0
 62
     0
 10
93.0561
 20
69.5745
 30
0.0
 11
79.0568
 21
69.5745
 31
0.0
  0
LINE
  8
0
 62
     0
 10
79.0568
 20
69.5745
 30
0.0
 11
79.0568
 21
83.5738
 31
0.0
  0
LINE
  8
0
 62
     0
 10
98.1068
 20
83.5738
 30
0.0
 11
112.106
 21
83.5738
 31
0.0
  0
LINE
  8
0
 62
     0
 10
112.106
 20
83.5738
 30
0.0
 11
112.106
 21
69.5745
 31
0.0
  0
LINE
  8
0
 62
     0
 10
112.106
 20
69.5745
 30
0.0
 11
98.1068
 21
69.5745
 31
0.0
  0
LINE
  8
0
 62
     0
 10
98.1068
 20
69.5745
 30
0.0
 11
98.1068
 21
83.5738
 31
0.0
  0
LINE
  8
0
 62
     0
 10
117.157
 20
83.5738
 30
0.0
 11
131.156
 21
83.5738
 31
0.0
  0
LINE
  8
0
 62
     0
 10
131.156
 20
83.5738
 30
0.0
 11
131.156
 21
69.5745
 31
0.0
  0
LINE
  8
0
 62
     0
 10
131.156
 20
69.5745
 30
0.0
 11
117.157
 21
69.5745
 31
0.0
  0
LINE
  8
0
 62
     0
 10
117.157
 20
69.5745
 30
0.0
 11
117.157
 21
83.5738
 31
0.0
  0
LINE
  8
0
 62
     0
 10
136.207
 20
83.5738
 30
0.0
 11
150.206
 21
83.5738
 31
0.0
  0
LINE
  8
0
 62
     0
 10
150.206
 20
83.5738
 30
0.0
 11
150.206
 21
69.5745
 31
0.0
  0
LINE
  8
0
 62
     0
 10
150.206
 20
69.5745
 30
0.0
 11
136.207
 21
69.5745
 31
0.0
  0
LINE
  8
0
 62
     0
 10
136.207
 20
69.5745
 30
0.0
 11
136.207
 21
83.5738
 31
0.0
  0
LINE
  8
0
 62
     0
 10
155.257
 20
83.5738
 30
0.0
 11
169.256
 21
83.5738
 31
0.0
  0
LINE
  8
0
 62
     0
 10
169.256
 20
83.5738
 30
0.0
 11
169.256
 21
69.5745
 31
0.0
  0
LINE
  8
0
 62
     0
 10
169.256
 20
69.5745
 30
0.0
 11
155.257
 21
69.5745
 31
0.0
  0
LINE
  8
0
 62
     0
 10
155.257
 20
69.5745
 30
0.0
 11
155.257
 21
83.5738
 31
0.0
  0
LINE
  8
0
 62
     0
 10
174.307
 20
83.5738
 30
0.0
 11
188.306
 21
83.5738
 31
0.0
  0
LINE
  8
0
 62
     0
 10
188.306
 20
83.5738
 30
0.0
 11
188.306
 21
69.5745
 31
0.0
  0
LINE
  8
0
 62
     0
 10
188.306
 20
69.5745
 30
0.0
 11
174.307
 21
69.5745
 31
0.0
  0
LINE
  8
0
 62
     0
 10
174.307
 20
69.5745
 30
0.0
 11
174.307
 21
83.5738
 31
0.0
  0
LINE
  8
0
 62
     0
 10
193.357
 20
83.5738
 30
0.0
 11
207.356
 21
83.5738
 31
0.0
  0
LINE
  8
0
 62
     0
 10
207.356
 20
83.5738
 30
0.0
 11
207.356
 21
69.5745
 31
0.0
  0
LINE
  8
0
 62
     0
 10
207.356
 20
69.5745
 30
0.0
 11
193.357
 21
69.5745
 31
0.0
  0
LINE
  8
0
 62
     0
 10
193.357
 20
69.5745
 30
0.0
 11
193.357
 21
83.5738
 31
0.0
  0
LINE
  8
0
 62
     0
 10
212.407
 20
83.5738
 30
0.0
 11
226.406
 21
83.5738
 31
0.0
  0
LINE
  8
0
 62
     0
 10
226.406
 20
83.5738
 30
0.0
 11
226.406
 21
69.5745
 31
0.0
  0
LINE
  8
0
 62
     0
 10
226.406
 20
69.5745
 30
0.0
 11
212.407
 21
69.5745
 31
0.0
  0
LINE
  8
0
 62
     0
 10
212.407
 20
69.5745
 30
0.0
 11
212.407
 21
83.5738
 31
0.0
  0
LINE
  8
0
 62
     0
 10
231.457
 20
83.5738
 30
0.0
 11
245.456
 21
83.5738
 31
0.0
  0
LINE
  8
0
 62
     0
 10
245.456
 20
83.5738
 30
0.0
 11
245.456
 21
69.5745
 31
0.0
  0
LINE
  8
0
 62
     0
 10
245.456
 20
69.5745
 30
0.0
 11
231.457
 21
69.5745
 31
0.0
  0
LINE
  8
0
 62
     0
 10
231.457
 20
69.5745
 30
0.0
 11
231.457
 21
83.5738
 31
0.0
  0
LINE
  8
0
 62
     0
 10
250.507
 20
83.5738
 30
0.0
 11
264.506
 21
83.5738
 31
0.0
  0
LINE
  8
0
 62
     0
 10
264.506
 20
83.5738
 30
0.0
 11
264.506
 21
69.5745
 31
0.0
  0
LINE
  8
0
 62
     0
 10
264.506
 20
69.5745
 30
0.0
 11
250.507
 21
69.5745
 31
0.0
  0
LINE
  8
0
 62
     0
 10
250.507
 20
69.5745
 30
0.0
 11
250.507
 21
83.5738
 31
0.0
  0
LINE
  8
0
 62
     0
 10
269.557
 20
83.5738
 30
0.0
 11
283.556
 21
83.5738
 31
0.0
  0
LINE
  8
0
 62
     0
 10
283.556
 20
83.5738
 30
0.0
 11
283.556
 21
69.5745
 31
0.0
  0
LINE
  8
0
 62
     0
 10
283.556
 20
69.5745
 30
0.0
 11
269.557
 21
69.5745
 31
0.0
  0
LINE
  8
0
 62
     0
 10
269.557
 20
69.5745
 30
0.0
 11
269.557
 21
83.5738
 31
0.0
  0
LINE
  8
0
 62
     0
 10
293.369
 20
83.5738
 30
0.0
 11
307.37
 21
83.5738
 31
0.0
  0
LINE
  8
0
 62
     0
 10
307.37
 20
83.5738
 30
0.0
 11
307.37
 21
69.5745
 31
0.0
  0
LINE
  8
0
 62
     0
 10
307.37
 20
69.5745
 30
0.0
 11
293.369
 21
69.5745
 31
0.0
  0
LINE
  8
0
 62
     0
 10
293.369
 20
69.5745
 30
0.0
 11
293.369
 21
83.5738
 31
0.0
  0
LINE
  8
0
 62
     0
 10
326.707
 20
83.5738
 30
0.0
 11
340.706
 21
83.5738
 31
0.0
  0
LINE
  8
0
 62
     0
 10
340.706
 20
83.5738
 30
0.0
 11
340.706
 21
69.5745
 31
0.0
  0
LINE
  8
0
 62
     0
 10
340.706
 20
69.5745
 30
0.0
 11
326.707
 21
69.5745
 31
0.0
  0
LINE
  8
0
 62
     0
 10
326.707
 20
69.5745
 30
0.0
 11
326.707
 21
83.5738
 31
0.0
  0
LINE
  8
0
 62
     0
 10
288.607
 20
102.624
 30
0.0
 11
288.607
 21
97.9234
 31
0.0
  0
LINE
  8
0
 62
     0
 10
288.607
 20
97.9234
 30
0.0
 11
287.081
 21
97.9234
 31
0.0
  0
LINE
  8
0
 62
     0
 10
287.081
 20
97.9234
 30
0.0
 11
287.081
 21
101.153
 31
0.0
  0
LINE
  8
0
 62
     0
 10
287.081
 20
101.153
 30
0.0
 11
280.332
 21
101.153
 31
0.0
  0
LINE
  8
0
 62
     0
 10
280.332
 20
101.153
 30
0.0
 11
280.332
 21
97.9234
 31
0.0
  0
LINE
  8
0
 62
     0
 10
280.332
 20
97.9234
 30
0.0
 11
279.506
 21
97.9234
 31
0.0
  0
LINE
  8
0
 62
     0
 10
279.506
 20
97.9234
 30
0.0
 11
279.506
 21
95.1248
 31
0.0
  0
LINE
  8
0
 62
     0
 10
279.506
 20
95.1248
 30
0.0
 11
280.332
 21
95.1248
 31
0.0
  0
LINE
  8
0
 62
     0
 10
280.332
 20
95.1248
 30
0.0
 11
280.332
 21
88.8545
 31
0.0
  0
LINE
  8
0
 62
     0
 10
280.332
 20
88.8545
 30
0.0
 11
282.057
 21
88.8545
 31
0.0
  0
LINE
  8
0
 62
     0
 10
282.057
 20
88.8545
 30
0.0
 11
282.057
 21
87.6543
 31
0.0
  0
LINE
  8
0
 62
     0
 10
282.057
 20
87.6543
 30
0.0
 11
285.356
 21
87.6543
 31
0.0
  0
LINE
  8
0
 62
     0
 10
285.356
 20
87.6543
 30
0.0
 11
285.356
 21
88.8545
 31
0.0
  0
LINE
  8
0
 62
     0
 10
285.356
 20
88.8545
 30
0.0
 11
287.081
 21
88.8545
 31
0.0
  0
LINE
  8
0
 62
     0
 10
287.081
 20
88.8545
 30
0.0
 11
287.081
 21
93.3235
 31
0.0
  0
LINE
  8
0
 62
     0
 10
287.081
 20
93.3235
 30
0.0
 11
288.607
 21
93.3235
 31
0.0
  0
LINE
  8
0
 62
     0
 10
288.607
 20
93.3235
 30
0.0
 11
288.607
 21
88.6245
 31
0.0
  0
LINE
  8
0
 62
     0
 10
288.607
 20
88.6245
 30
0.0
 11
302.606
 21
88.6245
 31
0.0
  0
LINE
  8
0
 62
     0
 10
302.606
 20
88.6245
 30
0.0
 11
302.606
 21
93.3235
 31
0.0
  0
LINE
  8
0
 62
     0
 10
302.606
 20
93.3235
 30
0.0
 11
304.131
 21
93.3235
 31
0.0
  0
LINE
  8
0
 62
     0
 10
304.131
 20
93.3235
 30
0.0
 11
304.131
 21
88.8545
 31
0.0
  0
LINE
  8
0
 62
     0
 10
304.131
 20
88.8545
 30
0.0
 11
305.857
 21
88.8545
 31
0.0
  0
LINE
  8
0
 62
     0
 10
305.857
 20
88.8545
 30
0.0
 11
305.857
 21
87.6543
 31
0.0
  0
LINE
  8
0
 62
     0
 10
305.857
 20
87.6543
 30
0.0
 11
309.156
 21
87.6543
 31
0.0
  0
LINE
  8
0
 62
     0
 10
309.156
 20
87.6543
 30
0.0
 11
309.156
 21
88.8545
 31
0.0
  0
LINE
  8
0
 62
     0
 10
309.156
 20
88.8545
 30
0.0
 11
310.881
 21
88.8545
 31
0.0
  0
LINE
  8
0
 62
     0
 10
310.881
 20
88.8545
 30
0.0
 11
310.881
 21
95.1248
 31
0.0
  0
LINE
  8
0
 62
     0
 10
310.881
 20
95.1248
 30
0.0
 11
311.707
 21
95.1248
 31
0.0
  0
LINE
  8
0
 62
     0
 10
311.707
 20
95.1248
 30
0.0
 11
311.707
 21
97.9234
 31
0.0
  0
LINE
  8
0
 62
     0
 10
311.707
 20
97.9234
 30
0.0
 11
310.881
 21
97.9234
 31
0.0
  0
LINE
  8
0
 62
     0
 10
310.881
 20
97.9234
 30
0.0
 11
310.881
 21
101.153
 31
0.0
  0
LINE
  8
0
 62
     0
 10
310.881
 20
101.153
 30
0.0
 11
304.131
 21
101.153
 31
0.0
  0
LINE
  8
0
 62
     0
 10
304.131
 20
101.153
 30
0.0
 11
304.131
 21
97.9234
 31
0.0
  0
LINE
  8
0
 62
     0
 10
304.131
 20
97.9234
 30
0.0
 11
302.606
 21
97.9234
 31
0.0
  0
LINE
  8
0
 62
     0
 10
302.606
 20
97.9234
 30
0.0
 11
302.606
 21
102.624
 31
0.0
  0
LINE
  8
0
 62
     0
 10
302.606
 20
102.624
 30
0.0
 11
288.607
 21
102.624
 31
0.0
  0
LINE
  8
0
 62
     0
 10
31.4317
 20
102.624
 30
0.0
 11
45.4311
 21
102.624
 31
0.0
  0
LINE
  8
0
 62
     0
 10
45.4311
 20
102.624
 30
0.0
 11
45.4311
 21
88.6245
 31
0.0
  0
LINE
  8
0
 62
     0
 10
45.4311
 20
88.6245
 30
0.0
 11
31.4317
 21
88.6245
 31
0.0
  0
LINE
  8
0
 62
     0
 10
31.4317
 20
88.6245
 30
0.0
 11
31.4317
 21
102.624
 31
0.0
  0
LINE
  8
0
 62
     0
 10
50.4818
 20
102.624
 30
0.0
 11
64.4811
 21
102.624
 31
0.0
  0
LINE
  8
0
 62
     0
 10
64.4811
 20
102.624
 30
0.0
 11
64.4811
 21
88.6245
 31
0.0
  0
LINE
  8
0
 62
     0
 10
64.4811
 20
88.6245
 30
0.0
 11
50.4818
 21
88.6245
 31
0.0
  0
LINE
  8
0
 62
     0
 10
50.4818
 20
88.6245
 30
0.0
 11
50.4818
 21
102.624
 31
0.0
  0
LINE
  8
0
 62
     0
 10
69.5318
 20
102.624
 30
0.0
 11
83.5311
 21
102.624
 31
0.0
  0
LINE
  8
0
 62
     0
 10
83.5311
 20
102.624
 30
0.0
 11
83.5311
 21
88.6245
 31
0.0
  0
LINE
  8
0
 62
     0
 10
83.5311
 20
88.6245
 30
0.0
 11
69.5318
 21
88.6245
 31
0.0
  0
LINE
  8
0
 62
     0
 10
69.5318
 20
88.6245
 30
0.0
 11
69.5318
 21
102.624
 31
0.0
  0
LINE
  8
0
 62
     0
 10
88.5818
 20
102.624
 30
0.0
 11
102.581
 21
102.624
 31
0.0
  0
LINE
  8
0
 62
     0
 10
102.581
 20
102.624
 30
0.0
 11
102.581
 21
88.6245
 31
0.0
  0
LINE
  8
0
 62
     0
 10
102.581
 20
88.6245
 30
0.0
 11
88.5818
 21
88.6245
 31
0.0
  0
LINE
  8
0
 62
     0
 10
88.5818
 20
88.6245
 30
0.0
 11
88.5818
 21
102.624
 31
0.0
  0
LINE
  8
0
 62
     0
 10
107.632
 20
102.624
 30
0.0
 11
121.631
 21
102.624
 31
0.0
  0
LINE
  8
0
 62
     0
 10
121.631
 20
102.624
 30
0.0
 11
121.631
 21
88.6245
 31
0.0
  0
LINE
  8
0
 62
     0
 10
121.631
 20
88.6245
 30
0.0
 11
107.632
 21
88.6245
 31
0.0
  0
LINE
  8
0
 62
     0
 10
107.632
 20
88.6245
 30
0.0
 11
107.632
 21
102.624
 31
0.0
  0
LINE
  8
0
 62
     0
 10
126.682
 20
102.624
 30
0.0
 11
140.681
 21
102.624
 31
0.0
  0
LINE
  8
0
 62
     0
 10
140.681
 20
102.624
 30
0.0
 11
140.681
 21
88.6245
 31
0.0
  0
LINE
  8
0
 62
     0
 10
140.681
 20
88.6245
 30
0.0
 11
126.682
 21
88.6245
 31
0.0
  0
LINE
  8
0
 62
     0
 10
126.682
 20
88.6245
 30
0.0
 11
126.682
 21
102.624
 31
0.0
  0
LINE
  8
0
 62
     0
 10
145.732
 20
102.624
 30
0.0
 11
159.731
 21
102.624
 31
0.0
  0
LINE
  8
0
 62
     0
 10
159.731
 20
102.624
 30
0.0
 11
159.731
 21
88.6245
 31
0.0
  0
LINE
  8
0
 62
     0
 10
159.731
 20
88.6245
 30
0.0
 11
145.732
 21
88.6245
 31
0.0
  0
LINE
  8
0
 62
     0
 10
145.732
 20
88.6245
 30
0.0
 11
145.732
 21
102.624
 31
0.0
  0
LINE
  8
0
 62
     0
 10
164.782
 20
102.624
 30
0.0
 11
178.781
 21
102.624
 31
0.0
  0
LINE
  8
0
 62
     0
 10
178.781
 20
102.624
 30
0.0
 11
178.781
 21
88.6245
 31
0.0
  0
LINE
  8
0
 62
     0
 10
178.781
 20
88.6245
 30
0.0
 11
164.782
 21
88.6245
 31
0.0
  0
LINE
  8
0
 62
     0
 10
164.782
 20
88.6245
 30
0.0
 11
164.782
 21
102.624
 31
0.0
  0
LINE
  8
0
 62
     0
 10
183.832
 20
102.624
 30
0.0
 11
197.831
 21
102.624
 31
0.0
  0
LINE
  8
0
 62
     0
 10
197.831
 20
102.624
 30
0.0
 11
197.831
 21
88.6245
 31
0.0
  0
LINE
  8
0
 62
     0
 10
197.831
 20
88.6245
 30
0.0
 11
183.832
 21
88.6245
 31
0.0
  0
LINE
  8
0
 62
     0
 10
183.832
 20
88.6245
 30
0.0
 11
183.832
 21
102.624
 31
0.0
  0
LINE
  8
0
 62
     0
 10
202.882
 20
102.624
 30
0.0
 11
216.881
 21
102.624
 31
0.0
  0
LINE
  8
0
 62
     0
 10
216.881
 20
102.624
 30
0.0
 11
216.881
 21
88.6245
 31
0.0
  0
LINE
  8
0
 62
     0
 10
216.881
 20
88.6245
 30
0.0
 11
202.882
 21
88.6245
 31
0.0
  0
LINE
  8
0
 62
     0
 10
202.882
 20
88.6245
 30
0.0
 11
202.882
 21
102.624
 31
0.0
  0
LINE
  8
0
 62
     0
 10
221.932
 20
102.624
 30
0.0
 11
235.931
 21
102.624
 31
0.0
  0
LINE
  8
0
 62
     0
 10
235.931
 20
102.624
 30
0.0
 11
235.931
 21
88.6245
 31
0.0
  0
LINE
  8
0
 62
     0
 10
235.931
 20
88.6245
 30
0.0
 11
221.932
 21
88.6245
 31
0.0
  0
LINE
  8
0
 62
     0
 10
221.932
 20
88.6245
 30
0.0
 11
221.932
 21
102.624
 31
0.0
  0
LINE
  8
0
 62
     0
 10
240.982
 20
102.624
 30
0.0
 11
254.981
 21
102.624
 31
0.0
  0
LINE
  8
0
 62
     0
 10
254.981
 20
102.624
 30
0.0
 11
254.981
 21
88.6245
 31
0.0
  0
LINE
  8
0
 62
     0
 10
254.981
 20
88.6245
 30
0.0
 11
240.982
 21
88.6245
 31
0.0
  0
LINE
  8
0
 62
     0
 10
240.982
 20
88.6245
 30
0.0
 11
240.982
 21
102.624
 31
0.0
  0
LINE
  8
0
 62
     0
 10
260.032
 20
102.624
 30
0.0
 11
274.031
 21
102.624
 31
0.0
  0
LINE
  8
0
 62
     0
 10
274.031
 20
102.624
 30
0.0
 11
274.031
 21
88.6245
 31
0.0
  0
LINE
  8
0
 62
     0
 10
274.031
 20
88.6245
 30
0.0
 11
260.032
 21
88.6245
 31
0.0
  0
LINE
  8
0
 62
     0
 10
260.032
 20
88.6245
 30
0.0
 11
260.032
 21
102.624
 31
0.0
  0
LINE
  8
0
 62
     0
 10
326.707
 20
102.624
 30
0.0
 11
340.706
 21
102.624
 31
0.0
  0
LINE
  8
0
 62
     0
 10
340.706
 20
102.624
 30
0.0
 11
340.706
 21
88.6245
 31
0.0
  0
LINE
  8
0
 62
     0
 10
340.706
 20
88.6245
 30
0.0
 11
326.707
 21
88.6245
 31
0.0
  0
LINE
  8
0
 62
     0
 10
326.707
 20
88.6245
 30
0.0
 11
326.707
 21
102.624
 31
0.0
  0
LINE
  8
0
 62
     0
 10
31.4317
 20
126.436
 30
0.0
 11
45.4311
 21
126.436
 31
0.0
  0
LINE
  8
0
 62
     0
 10
45.4311
 20
126.436
 30
0.0
 11
45.4311
 21
112.436
 31
0.0
  0
LINE
  8
0
 62
     0
 10
45.4311
 20
112.436
 30
0.0
 11
31.4317
 21
112.436
 31
0.0
  0
LINE
  8
0
 62
     0
 10
31.4317
 20
112.436
 30
0.0
 11
31.4317
 21
126.436
 31
0.0
  0
LINE
  8
0
 62
     0
 10
55.2443
 20
126.436
 30
0.0
 11
69.245
 21
126.436
 31
0.0
  0
LINE
  8
0
 62
     0
 10
69.245
 20
126.436
 30
0.0
 11
69.245
 21
112.436
 31
0.0
  0
LINE
  8
0
 62
     0
 10
69.245
 20
112.436
 30
0.0
 11
55.2443
 21
112.436
 31
0.0
  0
LINE
  8
0
 62
     0
 10
55.2443
 20
112.436
 30
0.0
 11
55.2443
 21
126.436
 31
0.0
  0
LINE
  8
0
 62
     0
 10
74.2943
 20
126.436
 30
0.0
 11
88.295
 21
126.436
 31
0.0
  0
LINE
  8
0
 62
     0
 10
88.295
 20
126.436
 30
0.0
 11
88.295
 21
112.436
 31
0.0
  0
LINE
  8
0
 62
     0
 10
88.295
 20
112.436
 30
0.0
 11
74.2943
 21
112.436
 31
0.0
  0
LINE
  8
0
 62
     0
 10
74.2943
 20
112.436
 30
0.0
 11
74.2943
 21
126.436
 31
0.0
  0
LINE
  8
0
 62
     0
 10
93.3443
 20
126.436
 30
0.0
 11
107.345
 21
126.436
 31
0.0
  0
LINE
  8
0
 62
     0
 10
107.345
 20
126.436
 30
0.0
 11
107.345
 21
112.436
 31
0.0
  0
LINE
  8
0
 62
     0
 10
107.345
 20
112.436
 30
0.0
 11
93.3443
 21
112.436
 31
0.0
  0
LINE
  8
0
 62
     0
 10
93.3443
 20
112.436
 30
0.0
 11
93.3443
 21
126.436
 31
0.0
  0
LINE
  8
0
 62
     0
 10
112.394
 20
126.436
 30
0.0
 11
126.395
 21
126.436
 31
0.0
  0
LINE
  8
0
 62
     0
 10
126.395
 20
126.436
 30
0.0
 11
126.395
 21
112.436
 31
0.0
  0
LINE
  8
0
 62
     0
 10
126.395
 20
112.436
 30
0.0
 11
112.394
 21
112.436
 31
0.0
  0
LINE
  8
0
 62
     0
 10
112.394
 20
112.436
 30
0.0
 11
112.394
 21
126.436
 31
0.0
  0
LINE
  8
0
 62
     0
 10
136.207
 20
126.436
 30
0.0
 11
150.206
 21
126.436
 31
0.0
  0
LINE
  8
0
 62
     0
 10
150.206
 20
126.436
 30
0.0
 11
150.206
 21
112.436
 31
0.0
  0
LINE
  8
0
 62
     0
 10
150.206
 20
112.436
 30
0.0
 11
136.207
 21
112.436
 31
0.0
  0
LINE
  8
0
 62
     0
 10
136.207
 20
112.436
 30
0.0
 11
136.207
 21
126.436
 31
0.0
  0
LINE
  8
0
 62
     0
 10
155.257
 20
126.436
 30
0.0
 11
169.256
 21
126.436
 31
0.0
  0
LINE
  8
0
 62
     0
 10
169.256
 20
126.436
 30
0.0
 11
169.256
 21
112.436
 31
0.0
  0
LINE
  8
0
 62
     0
 10
169.256
 20
112.436
 30
0.0
 11
155.257
 21
112.436
 31
0.0
  0
LINE
  8
0
 62
     0
 10
155.257
 20
112.436
 30
0.0
 11
155.257
 21
126.436
 31
0.0
  0
LINE
  8
0
 62
     0
 10
174.307
 20
126.436
 30
0.0
 11
188.306
 21
126.436
 31
0.0
  0
LINE
  8
0
 62
     0
 10
188.306
 20
126.436
 30
0.0
 11
188.306
 21
112.436
 31
0.0
  0
LINE
  8
0
 62
     0
 10
188.306
 20
112.436
 30
0.0
 11
174.307
 21
112.436
 31
0.0
  0
LINE
  8
0
 62
     0
 10
174.307
 20
112.436
 30
0.0
 11
174.307
 21
126.436
 31
0.0
  0
LINE
  8
0
 62
     0
 10
193.357
 20
126.436
 30
0.0
 11
207.356
 21
126.436
 31
0.0
  0
LINE
  8
0
 62
     0
 10
207.356
 20
126.436
 30
0.0
 11
207.356
 21
112.436
 31
0.0
  0
LINE
  8
0
 62
     0
 10
207.356
 20
112.436
 30
0.0
 11
193.357
 21
112.436
 31
0.0
  0
LINE
  8
0
 62
     0
 10
193.357
 20
112.436
 30
0.0
 11
193.357
 21
126.436
 31
0.0
  0
LINE
  8
0
 62
     0
 10
217.169
 20
126.436
 30
0.0
 11
231.17
 21
126.436
 31
0.0
  0
LINE
  8
0
 62
     0
 10
231.17
 20
126.436
 30
0.0
 11
231.17
 21
112.436
 31
0.0
  0
LINE
  8
0
 62
     0
 10
231.17
 20
112.436
 30
0.0
 11
217.169
 21
112.436
 31
0.0
  0
LINE
  8
0
 62
     0
 10
217.169
 20
112.436
 30
0.0
 11
217.169
 21
126.436
 31
0.0
  0
LINE
  8
0
 62
     0
 10
236.219
 20
126.436
 30
0.0
 11
250.22
 21
126.436
 31
0.0
  0
LINE
  8
0
 62
     0
 10
250.22
 20
126.436
 30
0.0
 11
250.22
 21
112.436
 31
0.0
  0
LINE
  8
0
 62
     0
 10
250.22
 20
112.436
 30
0.0
 11
236.219
 21
112.436
 31
0.0
  0
LINE
  8
0
 62
     0
 10
236.219
 20
112.436
 30
0.0
 11
236.219
 21
126.436
 31
0.0
  0
LINE
  8
0
 62
     0
 10
255.269
 20
126.436
 30
0.0
 11
269.27
 21
126.436
 31
0.0
  0
LINE
  8
0
 62
     0
 10
269.27
 20
126.436
 30
0.0
 11
269.27
 21
112.436
 31
0.0
  0
LINE
  8
0
 62
     0
 10
269.27
 20
112.436
 30
0.0
 11
255.269
 21
112.436
 31
0.0
  0
LINE
  8
0
 62
     0
 10
255.269
 20
112.436
 30
0.0
 11
255.269
 21
126.436
 31
0.0
  0
LINE
  8
0
 62
     0
 10
274.319
 20
126.436
 30
0.0
 11
288.32
 21
126.436
 31
0.0
  0
LINE
  8
0
 62
     0
 10
288.32
 20
126.436
 30
0.0
 11
288.32
 21
112.436
 31
0.0
  0
LINE
  8
0
 62
     0
 10
288.32
 20
112.436
 30
0.0
 11
274.319
 21
112.436
 31
0.0
  0
LINE
  8
0
 62
     0
 10
274.319
 20
112.436
 30
0.0
 11
274.319
 21
126.436
 31
0.0
  0
LINE
  8
0
 62
     0
 10
298.132
 20
126.436
 30
0.0
 11
312.131
 21
126.436
 31
0.0
  0
LINE
  8
0
 62
     0
 10
312.131
 20
126.436
 30
0.0
 11
312.131
 21
112.436
 31
0.0
  0
LINE
  8
0
 62
     0
 10
312.131
 20
112.436
 30
0.0
 11
298.132
 21
112.436
 31
0.0
  0
LINE
  8
0
 62
     0
 10
298.132
 20
112.436
 30
0.0
 11
298.132
 21
126.436
 31
0.0
  0
LINE
  8
0
 62
     0
 10
326.707
 20
126.436
 30
0.0
 11
340.706
 21
126.436
 31
0.0
  0
LINE
  8
0
 62
     0
 10
340.706
 20
126.436
 30
0.0
 11
340.706
 21
112.436
 31
0.0
  0
LINE
  8
0
 62
     0
 10
340.706
 20
112.436
 30
0.0
 11
326.707
 21
112.436
 31
0.0
  0
LINE
  8
0
 62
     0
 10
326.707
 20
112.436
 30
0.0
 11
326.707
 21
126.436
 31
0.0
  0
ENDSEC
  0
EOF
