  0
SECTION
  2
HEADER
  9
$ACADVER
  1
AC1009
  9
$FILLMODE
 70
 0
  9
$SPLFRAME
 70
 1
  9
$EXTMIN
 10
0
 20
0
 30
0.0
  9
$EXTMAX
 10
1058.33
 20
1058.33
 30
0.0
  0
ENDSEC
  0
SECTION
  2
TABLES
  0
TABLE
  2
LAYER
 70
1
  0
LAYER
  2
0
 70
     0
 62
     7
  6
CONTINUOUS
  0
ENDTAB
  0
ENDSEC
  0
SECTION
  2
ENTITIES
  0
LINE
  8
0
 62
     0
 10
0.0950846
 20
124.083
 30
0.0
 11
338.233
 21
124.083
 31
0.0
  0
LINE
  8
0
 62
     0
 10
338.233
 20
124.083
 30
0.0
 11
338.233
 21
0.257693
 31
0.0
  0
LINE
  8
0
 62
     0
 10
338.233
 20
0.257693
 30
0.0
 11
0.0950846
 21
0.257693
 31
0.0
  0
LINE
  8
0
 62
     0
 10
0.0950846
 20
0.257693
 30
0.0
 11
0.0950846
 21
124.083
 31
0.0
  0
LINE
  8
0
 62
     0
 10
278.845
 20
16.7831
 30
0.0
 11
292.844
 21
16.7831
 31
0.0
  0
LINE
  8
0
 62
     0
 10
292.844
 20
16.7831
 30
0.0
 11
292.844
 21
2.78364
 31
0.0
  0
LINE
  8
0
 62
     0
 10
292.844
 20
2.78364
 30
0.0
 11
278.845
 21
2.78364
 31
0.0
  0
LINE
  8
0
 62
     0
 10
278.845
 20
2.78364
 30
0.0
 11
278.845
 21
16.7831
 31
0.0
  0
LINE
  8
0
 62
     0
 10
297.895
 20
16.7831
 30
0.0
 11
311.894
 21
16.7831
 31
0.0
  0
LINE
  8
0
 62
     0
 10
311.894
 20
16.7831
 30
0.0
 11
311.894
 21
2.78364
 31
0.0
  0
LINE
  8
0
 62
     0
 10
311.894
 20
2.78364
 30
0.0
 11
297.895
 21
2.78364
 31
0.0
  0
LINE
  8
0
 62
     0
 10
297.895
 20
2.78364
 30
0.0
 11
297.895
 21
16.7831
 31
0.0
  0
LINE
  8
0
 62
     0
 10
316.945
 20
16.7831
 30
0.0
 11
330.944
 21
16.7831
 31
0.0
  0
LINE
  8
0
 62
     0
 10
330.944
 20
16.7831
 30
0.0
 11
330.944
 21
2.78364
 31
0.0
  0
LINE
  8
0
 62
     0
 10
330.944
 20
2.78364
 30
0.0
 11
316.945
 21
2.78364
 31
0.0
  0
LINE
  8
0
 62
     0
 10
316.945
 20
2.78364
 30
0.0
 11
316.945
 21
16.7831
 31
0.0
  0
LINE
  8
0
 62
     0
 10
147.876
 20
21.5456
 30
0.0
 11
147.876
 21
16.8465
 31
0.0
  0
LINE
  8
0
 62
     0
 10
147.876
 20
16.8465
 30
0.0
 11
108.251
 21
16.8465
 31
0.0
  0
LINE
  8
0
 62
     0
 10
108.251
 20
16.8465
 30
0.0
 11
108.251
 21
20.0767
 31
0.0
  0
LINE
  8
0
 62
     0
 10
108.251
 20
20.0767
 30
0.0
 11
101.501
 21
20.0767
 31
0.0
  0
LINE
  8
0
 62
     0
 10
101.501
 20
20.0767
 30
0.0
 11
101.501
 21
16.8465
 31
0.0
  0
LINE
  8
0
 62
     0
 10
101.501
 20
16.8465
 30
0.0
 11
100.675
 21
16.8465
 31
0.0
  0
LINE
  8
0
 62
     0
 10
100.675
 20
16.8465
 30
0.0
 11
100.675
 21
14.0463
 31
0.0
  0
LINE
  8
0
 62
     0
 10
100.675
 20
14.0463
 30
0.0
 11
101.501
 21
14.0463
 31
0.0
  0
LINE
  8
0
 62
     0
 10
101.501
 20
14.0463
 30
0.0
 11
101.501
 21
7.77628
 31
0.0
  0
LINE
  8
0
 62
     0
 10
101.501
 20
7.77628
 30
0.0
 11
103.226
 21
7.77628
 31
0.0
  0
LINE
  8
0
 62
     0
 10
103.226
 20
7.77628
 30
0.0
 11
103.226
 21
6.57599
 31
0.0
  0
LINE
  8
0
 62
     0
 10
103.226
 20
6.57599
 30
0.0
 11
106.525
 21
6.57599
 31
0.0
  0
LINE
  8
0
 62
     0
 10
106.525
 20
6.57599
 30
0.0
 11
106.525
 21
7.77628
 31
0.0
  0
LINE
  8
0
 62
     0
 10
106.525
 20
7.77628
 30
0.0
 11
108.251
 21
7.77628
 31
0.0
  0
LINE
  8
0
 62
     0
 10
108.251
 20
7.77628
 30
0.0
 11
108.251
 21
12.2466
 31
0.0
  0
LINE
  8
0
 62
     0
 10
108.251
 20
12.2466
 30
0.0
 11
147.876
 21
12.2466
 31
0.0
  0
LINE
  8
0
 62
     0
 10
147.876
 20
12.2466
 30
0.0
 11
147.876
 21
7.54613
 31
0.0
  0
LINE
  8
0
 62
     0
 10
147.876
 20
7.54613
 30
0.0
 11
161.875
 21
7.54613
 31
0.0
  0
LINE
  8
0
 62
     0
 10
161.875
 20
7.54613
 30
0.0
 11
161.875
 21
12.2466
 31
0.0
  0
LINE
  8
0
 62
     0
 10
161.875
 20
12.2466
 30
0.0
 11
201.501
 21
12.2466
 31
0.0
  0
LINE
  8
0
 62
     0
 10
201.501
 20
12.2466
 30
0.0
 11
201.501
 21
7.77628
 31
0.0
  0
LINE
  8
0
 62
     0
 10
201.501
 20
7.77628
 30
0.0
 11
203.226
 21
7.77628
 31
0.0
  0
LINE
  8
0
 62
     0
 10
203.226
 20
7.77628
 30
0.0
 11
203.226
 21
6.57599
 31
0.0
  0
LINE
  8
0
 62
     0
 10
203.226
 20
6.57599
 30
0.0
 11
206.525
 21
6.57599
 31
0.0
  0
LINE
  8
0
 62
     0
 10
206.525
 20
6.57599
 30
0.0
 11
206.525
 21
7.77628
 31
0.0
  0
LINE
  8
0
 62
     0
 10
206.525
 20
7.77628
 30
0.0
 11
208.25
 21
7.77628
 31
0.0
  0
LINE
  8
0
 62
     0
 10
208.25
 20
7.77628
 30
0.0
 11
208.25
 21
14.0463
 31
0.0
  0
LINE
  8
0
 62
     0
 10
208.25
 20
14.0463
 30
0.0
 11
209.076
 21
14.0463
 31
0.0
  0
LINE
  8
0
 62
     0
 10
209.076
 20
14.0463
 30
0.0
 11
209.076
 21
16.8465
 31
0.0
  0
LINE
  8
0
 62
     0
 10
209.076
 20
16.8465
 30
0.0
 11
208.25
 21
16.8465
 31
0.0
  0
LINE
  8
0
 62
     0
 10
208.25
 20
16.8465
 30
0.0
 11
208.25
 21
20.0767
 31
0.0
  0
LINE
  8
0
 62
     0
 10
208.25
 20
20.0767
 30
0.0
 11
201.501
 21
20.0767
 31
0.0
  0
LINE
  8
0
 62
     0
 10
201.501
 20
20.0767
 30
0.0
 11
201.501
 21
16.8465
 31
0.0
  0
LINE
  8
0
 62
     0
 10
201.501
 20
16.8465
 30
0.0
 11
161.875
 21
16.8465
 31
0.0
  0
LINE
  8
0
 62
     0
 10
161.875
 20
16.8465
 30
0.0
 11
161.875
 21
21.5456
 31
0.0
  0
LINE
  8
0
 62
     0
 10
161.875
 20
21.5456
 30
0.0
 11
147.876
 21
21.5456
 31
0.0
  0
LINE
  8
0
 62
     0
 10
2.61965
 20
21.5456
 30
0.0
 11
16.6192
 21
21.5456
 31
0.0
  0
LINE
  8
0
 62
     0
 10
16.6192
 20
21.5456
 30
0.0
 11
16.6192
 21
7.54613
 31
0.0
  0
LINE
  8
0
 62
     0
 10
16.6192
 20
7.54613
 30
0.0
 11
2.61965
 21
7.54613
 31
0.0
  0
LINE
  8
0
 62
     0
 10
2.61965
 20
7.54613
 30
0.0
 11
2.61965
 21
21.5456
 31
0.0
  0
LINE
  8
0
 62
     0
 10
28.812
 20
21.5456
 30
0.0
 11
42.8128
 21
21.5456
 31
0.0
  0
LINE
  8
0
 62
     0
 10
42.8128
 20
21.5456
 30
0.0
 11
42.8128
 21
7.54613
 31
0.0
  0
LINE
  8
0
 62
     0
 10
42.8128
 20
7.54613
 30
0.0
 11
28.812
 21
7.54613
 31
0.0
  0
LINE
  8
0
 62
     0
 10
28.812
 20
7.54613
 30
0.0
 11
28.812
 21
21.5456
 31
0.0
  0
LINE
  8
0
 62
     0
 10
52.626
 20
21.5456
 30
0.0
 11
66.6253
 21
21.5456
 31
0.0
  0
LINE
  8
0
 62
     0
 10
66.6253
 20
21.5456
 30
0.0
 11
66.6253
 21
7.54613
 31
0.0
  0
LINE
  8
0
 62
     0
 10
66.6253
 20
7.54613
 30
0.0
 11
52.626
 21
7.54613
 31
0.0
  0
LINE
  8
0
 62
     0
 10
52.626
 20
7.54613
 30
0.0
 11
52.626
 21
21.5456
 31
0.0
  0
LINE
  8
0
 62
     0
 10
76.4371
 20
21.5456
 30
0.0
 11
90.4378
 21
21.5456
 31
0.0
  0
LINE
  8
0
 62
     0
 10
90.4378
 20
21.5456
 30
0.0
 11
90.4378
 21
7.54613
 31
0.0
  0
LINE
  8
0
 62
     0
 10
90.4378
 20
7.54613
 30
0.0
 11
76.4371
 21
7.54613
 31
0.0
  0
LINE
  8
0
 62
     0
 10
76.4371
 20
7.54613
 30
0.0
 11
76.4371
 21
21.5456
 31
0.0
  0
LINE
  8
0
 62
     0
 10
219.312
 20
21.5456
 30
0.0
 11
233.313
 21
21.5456
 31
0.0
  0
LINE
  8
0
 62
     0
 10
233.313
 20
21.5456
 30
0.0
 11
233.313
 21
7.54613
 31
0.0
  0
LINE
  8
0
 62
     0
 10
233.313
 20
7.54613
 30
0.0
 11
219.312
 21
7.54613
 31
0.0
  0
LINE
  8
0
 62
     0
 10
219.312
 20
7.54613
 30
0.0
 11
219.312
 21
21.5456
 31
0.0
  0
LINE
  8
0
 62
     0
 10
243.126
 20
21.5456
 30
0.0
 11
257.125
 21
21.5456
 31
0.0
  0
LINE
  8
0
 62
     0
 10
257.125
 20
21.5456
 30
0.0
 11
257.125
 21
7.54613
 31
0.0
  0
LINE
  8
0
 62
     0
 10
257.125
 20
7.54613
 30
0.0
 11
243.126
 21
7.54613
 31
0.0
  0
LINE
  8
0
 62
     0
 10
243.126
 20
7.54613
 30
0.0
 11
243.126
 21
21.5456
 31
0.0
  0
LINE
  8
0
 62
     0
 10
297.895
 20
35.833
 30
0.0
 11
311.894
 21
35.833
 31
0.0
  0
LINE
  8
0
 62
     0
 10
311.894
 20
35.833
 30
0.0
 11
311.894
 21
21.8336
 31
0.0
  0
LINE
  8
0
 62
     0
 10
311.894
 20
21.8336
 30
0.0
 11
297.895
 21
21.8336
 31
0.0
  0
LINE
  8
0
 62
     0
 10
297.895
 20
21.8336
 30
0.0
 11
297.895
 21
35.833
 31
0.0
  0
LINE
  8
0
 62
     0
 10
38.3371
 20
40.5955
 30
0.0
 11
38.3371
 21
35.8965
 31
0.0
  0
LINE
  8
0
 62
     0
 10
38.3371
 20
35.8965
 30
0.0
 11
36.8131
 21
35.8965
 31
0.0
  0
LINE
  8
0
 62
     0
 10
36.8131
 20
35.8965
 30
0.0
 11
36.8131
 21
39.1266
 31
0.0
  0
LINE
  8
0
 62
     0
 10
36.8131
 20
39.1266
 30
0.0
 11
30.0619
 21
39.1266
 31
0.0
  0
LINE
  8
0
 62
     0
 10
30.0619
 20
39.1266
 30
0.0
 11
30.0619
 21
35.8965
 31
0.0
  0
LINE
  8
0
 62
     0
 10
30.0619
 20
35.8965
 30
0.0
 11
29.2378
 21
35.8965
 31
0.0
  0
LINE
  8
0
 62
     0
 10
29.2378
 20
35.8965
 30
0.0
 11
29.2378
 21
33.0963
 31
0.0
  0
LINE
  8
0
 62
     0
 10
29.2378
 20
33.0963
 30
0.0
 11
30.0619
 21
33.0963
 31
0.0
  0
LINE
  8
0
 62
     0
 10
30.0619
 20
33.0963
 30
0.0
 11
30.0619
 21
26.8263
 31
0.0
  0
LINE
  8
0
 62
     0
 10
30.0619
 20
26.8263
 30
0.0
 11
31.7872
 21
26.8263
 31
0.0
  0
LINE
  8
0
 62
     0
 10
31.7872
 20
26.8263
 30
0.0
 11
31.7872
 21
25.626
 31
0.0
  0
LINE
  8
0
 62
     0
 10
31.7872
 20
25.626
 30
0.0
 11
35.0876
 21
25.626
 31
0.0
  0
LINE
  8
0
 62
     0
 10
35.0876
 20
25.626
 30
0.0
 11
35.0876
 21
26.8263
 31
0.0
  0
LINE
  8
0
 62
     0
 10
35.0876
 20
26.8263
 30
0.0
 11
36.8131
 21
26.8263
 31
0.0
  0
LINE
  8
0
 62
     0
 10
36.8131
 20
26.8263
 30
0.0
 11
36.8131
 21
31.2966
 31
0.0
  0
LINE
  8
0
 62
     0
 10
36.8131
 20
31.2966
 30
0.0
 11
38.3371
 21
31.2966
 31
0.0
  0
LINE
  8
0
 62
     0
 10
38.3371
 20
31.2966
 30
0.0
 11
38.3371
 21
26.5961
 31
0.0
  0
LINE
  8
0
 62
     0
 10
38.3371
 20
26.5961
 30
0.0
 11
52.3378
 21
26.5961
 31
0.0
  0
LINE
  8
0
 62
     0
 10
52.3378
 20
26.5961
 30
0.0
 11
52.3378
 21
31.2966
 31
0.0
  0
LINE
  8
0
 62
     0
 10
52.3378
 20
31.2966
 30
0.0
 11
53.8621
 21
31.2966
 31
0.0
  0
LINE
  8
0
 62
     0
 10
53.8621
 20
31.2966
 30
0.0
 11
53.8621
 21
26.8263
 31
0.0
  0
LINE
  8
0
 62
     0
 10
53.8621
 20
26.8263
 30
0.0
 11
55.5872
 21
26.8263
 31
0.0
  0
LINE
  8
0
 62
     0
 10
55.5872
 20
26.8263
 30
0.0
 11
55.5872
 21
25.626
 31
0.0
  0
LINE
  8
0
 62
     0
 10
55.5872
 20
25.626
 30
0.0
 11
58.8878
 21
25.626
 31
0.0
  0
LINE
  8
0
 62
     0
 10
58.8878
 20
25.626
 30
0.0
 11
58.8878
 21
26.8263
 31
0.0
  0
LINE
  8
0
 62
     0
 10
58.8878
 20
26.8263
 30
0.0
 11
60.6129
 21
26.8263
 31
0.0
  0
LINE
  8
0
 62
     0
 10
60.6129
 20
26.8263
 30
0.0
 11
60.6129
 21
33.0963
 31
0.0
  0
LINE
  8
0
 62
     0
 10
60.6129
 20
33.0963
 30
0.0
 11
61.437
 21
33.0963
 31
0.0
  0
LINE
  8
0
 62
     0
 10
61.437
 20
33.0963
 30
0.0
 11
61.437
 21
35.8965
 31
0.0
  0
LINE
  8
0
 62
     0
 10
61.437
 20
35.8965
 30
0.0
 11
60.6129
 21
35.8965
 31
0.0
  0
LINE
  8
0
 62
     0
 10
60.6129
 20
35.8965
 30
0.0
 11
60.6129
 21
39.1266
 31
0.0
  0
LINE
  8
0
 62
     0
 10
60.6129
 20
39.1266
 30
0.0
 11
53.8621
 21
39.1266
 31
0.0
  0
LINE
  8
0
 62
     0
 10
53.8621
 20
39.1266
 30
0.0
 11
53.8621
 21
35.8965
 31
0.0
  0
LINE
  8
0
 62
     0
 10
53.8621
 20
35.8965
 30
0.0
 11
52.3378
 21
35.8965
 31
0.0
  0
LINE
  8
0
 62
     0
 10
52.3378
 20
35.8965
 30
0.0
 11
52.3378
 21
40.5955
 31
0.0
  0
LINE
  8
0
 62
     0
 10
52.3378
 20
40.5955
 30
0.0
 11
38.3371
 21
40.5955
 31
0.0
  0
LINE
  8
0
 62
     0
 10
2.61965
 20
40.5955
 30
0.0
 11
16.6192
 21
40.5955
 31
0.0
  0
LINE
  8
0
 62
     0
 10
16.6192
 20
40.5955
 30
0.0
 11
16.6192
 21
26.5961
 31
0.0
  0
LINE
  8
0
 62
     0
 10
16.6192
 20
26.5961
 30
0.0
 11
2.61965
 21
26.5961
 31
0.0
  0
LINE
  8
0
 62
     0
 10
2.61965
 20
26.5961
 30
0.0
 11
2.61965
 21
40.5955
 31
0.0
  0
LINE
  8
0
 62
     0
 10
69.2947
 20
40.5955
 30
0.0
 11
83.294
 21
40.5955
 31
0.0
  0
LINE
  8
0
 62
     0
 10
83.294
 20
40.5955
 30
0.0
 11
83.294
 21
26.5961
 31
0.0
  0
LINE
  8
0
 62
     0
 10
83.294
 20
26.5961
 30
0.0
 11
69.2947
 21
26.5961
 31
0.0
  0
LINE
  8
0
 62
     0
 10
69.2947
 20
26.5961
 30
0.0
 11
69.2947
 21
40.5955
 31
0.0
  0
LINE
  8
0
 62
     0
 10
88.3447
 20
40.5955
 30
0.0
 11
102.344
 21
40.5955
 31
0.0
  0
LINE
  8
0
 62
     0
 10
102.344
 20
40.5955
 30
0.0
 11
102.344
 21
26.5961
 31
0.0
  0
LINE
  8
0
 62
     0
 10
102.344
 20
26.5961
 30
0.0
 11
88.3447
 21
26.5961
 31
0.0
  0
LINE
  8
0
 62
     0
 10
88.3447
 20
26.5961
 30
0.0
 11
88.3447
 21
40.5955
 31
0.0
  0
LINE
  8
0
 62
     0
 10
107.395
 20
40.5955
 30
0.0
 11
121.394
 21
40.5955
 31
0.0
  0
LINE
  8
0
 62
     0
 10
121.394
 20
40.5955
 30
0.0
 11
121.394
 21
26.5961
 31
0.0
  0
LINE
  8
0
 62
     0
 10
121.394
 20
26.5961
 30
0.0
 11
107.395
 21
26.5961
 31
0.0
  0
LINE
  8
0
 62
     0
 10
107.395
 20
26.5961
 30
0.0
 11
107.395
 21
40.5955
 31
0.0
  0
LINE
  8
0
 62
     0
 10
126.445
 20
40.5955
 30
0.0
 11
140.444
 21
40.5955
 31
0.0
  0
LINE
  8
0
 62
     0
 10
140.444
 20
40.5955
 30
0.0
 11
140.444
 21
26.5961
 31
0.0
  0
LINE
  8
0
 62
     0
 10
140.444
 20
26.5961
 30
0.0
 11
126.445
 21
26.5961
 31
0.0
  0
LINE
  8
0
 62
     0
 10
126.445
 20
26.5961
 30
0.0
 11
126.445
 21
40.5955
 31
0.0
  0
LINE
  8
0
 62
     0
 10
145.495
 20
40.5955
 30
0.0
 11
159.494
 21
40.5955
 31
0.0
  0
LINE
  8
0
 62
     0
 10
159.494
 20
40.5955
 30
0.0
 11
159.494
 21
26.5961
 31
0.0
  0
LINE
  8
0
 62
     0
 10
159.494
 20
26.5961
 30
0.0
 11
145.495
 21
26.5961
 31
0.0
  0
LINE
  8
0
 62
     0
 10
145.495
 20
26.5961
 30
0.0
 11
145.495
 21
40.5955
 31
0.0
  0
LINE
  8
0
 62
     0
 10
164.545
 20
40.5955
 30
0.0
 11
178.544
 21
40.5955
 31
0.0
  0
LINE
  8
0
 62
     0
 10
178.544
 20
40.5955
 30
0.0
 11
178.544
 21
26.5961
 31
0.0
  0
LINE
  8
0
 62
     0
 10
178.544
 20
26.5961
 30
0.0
 11
164.545
 21
26.5961
 31
0.0
  0
LINE
  8
0
 62
     0
 10
164.545
 20
26.5961
 30
0.0
 11
164.545
 21
40.5955
 31
0.0
  0
LINE
  8
0
 62
     0
 10
183.595
 20
40.5955
 30
0.0
 11
197.594
 21
40.5955
 31
0.0
  0
LINE
  8
0
 62
     0
 10
197.594
 20
40.5955
 30
0.0
 11
197.594
 21
26.5961
 31
0.0
  0
LINE
  8
0
 62
     0
 10
197.594
 20
26.5961
 30
0.0
 11
183.595
 21
26.5961
 31
0.0
  0
LINE
  8
0
 62
     0
 10
183.595
 20
26.5961
 30
0.0
 11
183.595
 21
40.5955
 31
0.0
  0
LINE
  8
0
 62
     0
 10
202.645
 20
40.5955
 30
0.0
 11
216.644
 21
40.5955
 31
0.0
  0
LINE
  8
0
 62
     0
 10
216.644
 20
40.5955
 30
0.0
 11
216.644
 21
26.5961
 31
0.0
  0
LINE
  8
0
 62
     0
 10
216.644
 20
26.5961
 30
0.0
 11
202.645
 21
26.5961
 31
0.0
  0
LINE
  8
0
 62
     0
 10
202.645
 20
26.5961
 30
0.0
 11
202.645
 21
40.5955
 31
0.0
  0
LINE
  8
0
 62
     0
 10
221.695
 20
40.5955
 30
0.0
 11
235.694
 21
40.5955
 31
0.0
  0
LINE
  8
0
 62
     0
 10
235.694
 20
40.5955
 30
0.0
 11
235.694
 21
26.5961
 31
0.0
  0
LINE
  8
0
 62
     0
 10
235.694
 20
26.5961
 30
0.0
 11
221.695
 21
26.5961
 31
0.0
  0
LINE
  8
0
 62
     0
 10
221.695
 20
26.5961
 30
0.0
 11
221.695
 21
40.5955
 31
0.0
  0
LINE
  8
0
 62
     0
 10
240.745
 20
40.5955
 30
0.0
 11
254.744
 21
40.5955
 31
0.0
  0
LINE
  8
0
 62
     0
 10
254.744
 20
40.5955
 30
0.0
 11
254.744
 21
26.5961
 31
0.0
  0
LINE
  8
0
 62
     0
 10
254.744
 20
26.5961
 30
0.0
 11
240.745
 21
26.5961
 31
0.0
  0
LINE
  8
0
 62
     0
 10
240.745
 20
26.5961
 30
0.0
 11
240.745
 21
40.5955
 31
0.0
  0
LINE
  8
0
 62
     0
 10
266.937
 20
40.5955
 30
0.0
 11
280.938
 21
40.5955
 31
0.0
  0
LINE
  8
0
 62
     0
 10
280.938
 20
40.5955
 30
0.0
 11
280.938
 21
26.5961
 31
0.0
  0
LINE
  8
0
 62
     0
 10
280.938
 20
26.5961
 30
0.0
 11
266.937
 21
26.5961
 31
0.0
  0
LINE
  8
0
 62
     0
 10
266.937
 20
26.5961
 30
0.0
 11
266.937
 21
40.5955
 31
0.0
  0
LINE
  8
0
 62
     0
 10
321.707
 20
40.5955
 30
0.0
 11
335.707
 21
40.5955
 31
0.0
  0
LINE
  8
0
 62
     0
 10
335.707
 20
40.5955
 30
0.0
 11
335.707
 21
26.5961
 31
0.0
  0
LINE
  8
0
 62
     0
 10
335.707
 20
26.5961
 30
0.0
 11
321.707
 21
26.5961
 31
0.0
  0
LINE
  8
0
 62
     0
 10
321.707
 20
26.5961
 30
0.0
 11
321.707
 21
40.5955
 31
0.0
  0
LINE
  8
0
 62
     0
 10
281.226
 20
59.6456
 30
0.0
 11
281.226
 21
54.9465
 31
0.0
  0
LINE
  8
0
 62
     0
 10
281.226
 20
54.9465
 30
0.0
 11
279.701
 21
54.9465
 31
0.0
  0
LINE
  8
0
 62
     0
 10
279.701
 20
54.9465
 30
0.0
 11
279.701
 21
58.1766
 31
0.0
  0
LINE
  8
0
 62
     0
 10
279.701
 20
58.1766
 30
0.0
 11
272.951
 21
58.1766
 31
0.0
  0
LINE
  8
0
 62
     0
 10
272.951
 20
58.1766
 30
0.0
 11
272.951
 21
54.9465
 31
0.0
  0
LINE
  8
0
 62
     0
 10
272.951
 20
54.9465
 30
0.0
 11
272.125
 21
54.9465
 31
0.0
  0
LINE
  8
0
 62
     0
 10
272.125
 20
54.9465
 30
0.0
 11
272.125
 21
52.1462
 31
0.0
  0
LINE
  8
0
 62
     0
 10
272.125
 20
52.1462
 30
0.0
 11
272.951
 21
52.1462
 31
0.0
  0
LINE
  8
0
 62
     0
 10
272.951
 20
52.1462
 30
0.0
 11
272.951
 21
45.8763
 31
0.0
  0
LINE
  8
0
 62
     0
 10
272.951
 20
45.8763
 30
0.0
 11
274.676
 21
45.8763
 31
0.0
  0
LINE
  8
0
 62
     0
 10
274.676
 20
45.8763
 30
0.0
 11
274.676
 21
44.6761
 31
0.0
  0
LINE
  8
0
 62
     0
 10
274.676
 20
44.6761
 30
0.0
 11
277.975
 21
44.6761
 31
0.0
  0
LINE
  8
0
 62
     0
 10
277.975
 20
44.6761
 30
0.0
 11
277.975
 21
45.8763
 31
0.0
  0
LINE
  8
0
 62
     0
 10
277.975
 20
45.8763
 30
0.0
 11
279.701
 21
45.8763
 31
0.0
  0
LINE
  8
0
 62
     0
 10
279.701
 20
45.8763
 30
0.0
 11
279.701
 21
50.3467
 31
0.0
  0
LINE
  8
0
 62
     0
 10
279.701
 20
50.3467
 30
0.0
 11
281.226
 21
50.3467
 31
0.0
  0
LINE
  8
0
 62
     0
 10
281.226
 20
50.3467
 30
0.0
 11
281.226
 21
45.6463
 31
0.0
  0
LINE
  8
0
 62
     0
 10
281.226
 20
45.6463
 30
0.0
 11
295.225
 21
45.6463
 31
0.0
  0
LINE
  8
0
 62
     0
 10
295.225
 20
45.6463
 30
0.0
 11
295.225
 21
50.3467
 31
0.0
  0
LINE
  8
0
 62
     0
 10
295.225
 20
50.3467
 30
0.0
 11
296.751
 21
50.3467
 31
0.0
  0
LINE
  8
0
 62
     0
 10
296.751
 20
50.3467
 30
0.0
 11
296.751
 21
45.8763
 31
0.0
  0
LINE
  8
0
 62
     0
 10
296.751
 20
45.8763
 30
0.0
 11
298.476
 21
45.8763
 31
0.0
  0
LINE
  8
0
 62
     0
 10
298.476
 20
45.8763
 30
0.0
 11
298.476
 21
44.6761
 31
0.0
  0
LINE
  8
0
 62
     0
 10
298.476
 20
44.6761
 30
0.0
 11
301.775
 21
44.6761
 31
0.0
  0
LINE
  8
0
 62
     0
 10
301.775
 20
44.6761
 30
0.0
 11
301.775
 21
45.8763
 31
0.0
  0
LINE
  8
0
 62
     0
 10
301.775
 20
45.8763
 30
0.0
 11
303.5
 21
45.8763
 31
0.0
  0
LINE
  8
0
 62
     0
 10
303.5
 20
45.8763
 30
0.0
 11
303.5
 21
52.1462
 31
0.0
  0
LINE
  8
0
 62
     0
 10
303.5
 20
52.1462
 30
0.0
 11
304.326
 21
52.1462
 31
0.0
  0
LINE
  8
0
 62
     0
 10
304.326
 20
52.1462
 30
0.0
 11
304.326
 21
54.9465
 31
0.0
  0
LINE
  8
0
 62
     0
 10
304.326
 20
54.9465
 30
0.0
 11
303.5
 21
54.9465
 31
0.0
  0
LINE
  8
0
 62
     0
 10
303.5
 20
54.9465
 30
0.0
 11
303.5
 21
58.1766
 31
0.0
  0
LINE
  8
0
 62
     0
 10
303.5
 20
58.1766
 30
0.0
 11
296.751
 21
58.1766
 31
0.0
  0
LINE
  8
0
 62
     0
 10
296.751
 20
58.1766
 30
0.0
 11
296.751
 21
54.9465
 31
0.0
  0
LINE
  8
0
 62
     0
 10
296.751
 20
54.9465
 30
0.0
 11
295.225
 21
54.9465
 31
0.0
  0
LINE
  8
0
 62
     0
 10
295.225
 20
54.9465
 30
0.0
 11
295.225
 21
59.6456
 31
0.0
  0
LINE
  8
0
 62
     0
 10
295.225
 20
59.6456
 30
0.0
 11
281.226
 21
59.6456
 31
0.0
  0
LINE
  8
0
 62
     0
 10
2.61965
 20
59.6456
 30
0.0
 11
16.6192
 21
59.6456
 31
0.0
  0
LINE
  8
0
 62
     0
 10
16.6192
 20
59.6456
 30
0.0
 11
16.6192
 21
45.6463
 31
0.0
  0
LINE
  8
0
 62
     0
 10
16.6192
 20
45.6463
 30
0.0
 11
2.61965
 21
45.6463
 31
0.0
  0
LINE
  8
0
 62
     0
 10
2.61965
 20
45.6463
 30
0.0
 11
2.61965
 21
59.6456
 31
0.0
  0
LINE
  8
0
 62
     0
 10
33.5759
 20
59.6456
 30
0.0
 11
47.5753
 21
59.6456
 31
0.0
  0
LINE
  8
0
 62
     0
 10
47.5753
 20
59.6456
 30
0.0
 11
47.5753
 21
45.6463
 31
0.0
  0
LINE
  8
0
 62
     0
 10
47.5753
 20
45.6463
 30
0.0
 11
33.5759
 21
45.6463
 31
0.0
  0
LINE
  8
0
 62
     0
 10
33.5759
 20
45.6463
 30
0.0
 11
33.5759
 21
59.6456
 31
0.0
  0
LINE
  8
0
 62
     0
 10
59.7697
 20
59.6456
 30
0.0
 11
73.769
 21
59.6456
 31
0.0
  0
LINE
  8
0
 62
     0
 10
73.769
 20
59.6456
 30
0.0
 11
73.769
 21
45.6463
 31
0.0
  0
LINE
  8
0
 62
     0
 10
73.769
 20
45.6463
 30
0.0
 11
59.7697
 21
45.6463
 31
0.0
  0
LINE
  8
0
 62
     0
 10
59.7697
 20
45.6463
 30
0.0
 11
59.7697
 21
59.6456
 31
0.0
  0
LINE
  8
0
 62
     0
 10
78.8197
 20
59.6456
 30
0.0
 11
92.819
 21
59.6456
 31
0.0
  0
LINE
  8
0
 62
     0
 10
92.819
 20
59.6456
 30
0.0
 11
92.819
 21
45.6463
 31
0.0
  0
LINE
  8
0
 62
     0
 10
92.819
 20
45.6463
 30
0.0
 11
78.8197
 21
45.6463
 31
0.0
  0
LINE
  8
0
 62
     0
 10
78.8197
 20
45.6463
 30
0.0
 11
78.8197
 21
59.6456
 31
0.0
  0
LINE
  8
0
 62
     0
 10
97.8697
 20
59.6456
 30
0.0
 11
111.869
 21
59.6456
 31
0.0
  0
LINE
  8
0
 62
     0
 10
111.869
 20
59.6456
 30
0.0
 11
111.869
 21
45.6463
 31
0.0
  0
LINE
  8
0
 62
     0
 10
111.869
 20
45.6463
 30
0.0
 11
97.8697
 21
45.6463
 31
0.0
  0
LINE
  8
0
 62
     0
 10
97.8697
 20
45.6463
 30
0.0
 11
97.8697
 21
59.6456
 31
0.0
  0
LINE
  8
0
 62
     0
 10
116.92
 20
59.6456
 30
0.0
 11
130.919
 21
59.6456
 31
0.0
  0
LINE
  8
0
 62
     0
 10
130.919
 20
59.6456
 30
0.0
 11
130.919
 21
45.6463
 31
0.0
  0
LINE
  8
0
 62
     0
 10
130.919
 20
45.6463
 30
0.0
 11
116.92
 21
45.6463
 31
0.0
  0
LINE
  8
0
 62
     0
 10
116.92
 20
45.6463
 30
0.0
 11
116.92
 21
59.6456
 31
0.0
  0
LINE
  8
0
 62
     0
 10
135.97
 20
59.6456
 30
0.0
 11
149.969
 21
59.6456
 31
0.0
  0
LINE
  8
0
 62
     0
 10
149.969
 20
59.6456
 30
0.0
 11
149.969
 21
45.6463
 31
0.0
  0
LINE
  8
0
 62
     0
 10
149.969
 20
45.6463
 30
0.0
 11
135.97
 21
45.6463
 31
0.0
  0
LINE
  8
0
 62
     0
 10
135.97
 20
45.6463
 30
0.0
 11
135.97
 21
59.6456
 31
0.0
  0
LINE
  8
0
 62
     0
 10
155.02
 20
59.6456
 30
0.0
 11
169.019
 21
59.6456
 31
0.0
  0
LINE
  8
0
 62
     0
 10
169.019
 20
59.6456
 30
0.0
 11
169.019
 21
45.6463
 31
0.0
  0
LINE
  8
0
 62
     0
 10
169.019
 20
45.6463
 30
0.0
 11
155.02
 21
45.6463
 31
0.0
  0
LINE
  8
0
 62
     0
 10
155.02
 20
45.6463
 30
0.0
 11
155.02
 21
59.6456
 31
0.0
  0
LINE
  8
0
 62
     0
 10
174.07
 20
59.6456
 30
0.0
 11
188.069
 21
59.6456
 31
0.0
  0
LINE
  8
0
 62
     0
 10
188.069
 20
59.6456
 30
0.0
 11
188.069
 21
45.6463
 31
0.0
  0
LINE
  8
0
 62
     0
 10
188.069
 20
45.6463
 30
0.0
 11
174.07
 21
45.6463
 31
0.0
  0
LINE
  8
0
 62
     0
 10
174.07
 20
45.6463
 30
0.0
 11
174.07
 21
59.6456
 31
0.0
  0
LINE
  8
0
 62
     0
 10
193.12
 20
59.6456
 30
0.0
 11
207.119
 21
59.6456
 31
0.0
  0
LINE
  8
0
 62
     0
 10
207.119
 20
59.6456
 30
0.0
 11
207.119
 21
45.6463
 31
0.0
  0
LINE
  8
0
 62
     0
 10
207.119
 20
45.6463
 30
0.0
 11
193.12
 21
45.6463
 31
0.0
  0
LINE
  8
0
 62
     0
 10
193.12
 20
45.6463
 30
0.0
 11
193.12
 21
59.6456
 31
0.0
  0
LINE
  8
0
 62
     0
 10
212.17
 20
59.6456
 30
0.0
 11
226.169
 21
59.6456
 31
0.0
  0
LINE
  8
0
 62
     0
 10
226.169
 20
59.6456
 30
0.0
 11
226.169
 21
45.6463
 31
0.0
  0
LINE
  8
0
 62
     0
 10
226.169
 20
45.6463
 30
0.0
 11
212.17
 21
45.6463
 31
0.0
  0
LINE
  8
0
 62
     0
 10
212.17
 20
45.6463
 30
0.0
 11
212.17
 21
59.6456
 31
0.0
  0
LINE
  8
0
 62
     0
 10
231.22
 20
59.6456
 30
0.0
 11
245.219
 21
59.6456
 31
0.0
  0
LINE
  8
0
 62
     0
 10
245.219
 20
59.6456
 30
0.0
 11
245.219
 21
45.6463
 31
0.0
  0
LINE
  8
0
 62
     0
 10
245.219
 20
45.6463
 30
0.0
 11
231.22
 21
45.6463
 31
0.0
  0
LINE
  8
0
 62
     0
 10
231.22
 20
45.6463
 30
0.0
 11
231.22
 21
59.6456
 31
0.0
  0
LINE
  8
0
 62
     0
 10
250.27
 20
59.6456
 30
0.0
 11
264.269
 21
59.6456
 31
0.0
  0
LINE
  8
0
 62
     0
 10
264.269
 20
59.6456
 30
0.0
 11
264.269
 21
45.6463
 31
0.0
  0
LINE
  8
0
 62
     0
 10
264.269
 20
45.6463
 30
0.0
 11
250.27
 21
45.6463
 31
0.0
  0
LINE
  8
0
 62
     0
 10
250.27
 20
45.6463
 30
0.0
 11
250.27
 21
59.6456
 31
0.0
  0
LINE
  8
0
 62
     0
 10
321.707
 20
59.6456
 30
0.0
 11
335.707
 21
59.6456
 31
0.0
  0
LINE
  8
0
 62
     0
 10
335.707
 20
59.6456
 30
0.0
 11
335.707
 21
45.6463
 31
0.0
  0
LINE
  8
0
 62
     0
 10
335.707
 20
45.6463
 30
0.0
 11
321.707
 21
45.6463
 31
0.0
  0
LINE
  8
0
 62
     0
 10
321.707
 20
45.6463
 30
0.0
 11
321.707
 21
59.6456
 31
0.0
  0
LINE
  8
0
 62
     0
 10
2.61965
 20
78.6956
 30
0.0
 11
16.6192
 21
78.6956
 31
0.0
  0
LINE
  8
0
 62
     0
 10
16.6192
 20
78.6956
 30
0.0
 11
16.6192
 21
64.6963
 31
0.0
  0
LINE
  8
0
 62
     0
 10
16.6192
 20
64.6963
 30
0.0
 11
2.61965
 21
64.6963
 31
0.0
  0
LINE
  8
0
 62
     0
 10
2.61965
 20
64.6963
 30
0.0
 11
2.61965
 21
78.6956
 31
0.0
  0
LINE
  8
0
 62
     0
 10
31.1947
 20
78.6956
 30
0.0
 11
45.194
 21
78.6956
 31
0.0
  0
LINE
  8
0
 62
     0
 10
45.194
 20
78.6956
 30
0.0
 11
45.194
 21
64.6963
 31
0.0
  0
LINE
  8
0
 62
     0
 10
45.194
 20
64.6963
 30
0.0
 11
31.1947
 21
64.6963
 31
0.0
  0
LINE
  8
0
 62
     0
 10
31.1947
 20
64.6963
 30
0.0
 11
31.1947
 21
78.6956
 31
0.0
  0
LINE
  8
0
 62
     0
 10
55.0072
 20
78.6956
 30
0.0
 11
69.0065
 21
78.6956
 31
0.0
  0
LINE
  8
0
 62
     0
 10
69.0065
 20
78.6956
 30
0.0
 11
69.0065
 21
64.6963
 31
0.0
  0
LINE
  8
0
 62
     0
 10
69.0065
 20
64.6963
 30
0.0
 11
55.0072
 21
64.6963
 31
0.0
  0
LINE
  8
0
 62
     0
 10
55.0072
 20
64.6963
 30
0.0
 11
55.0072
 21
78.6956
 31
0.0
  0
LINE
  8
0
 62
     0
 10
74.0572
 20
78.6956
 30
0.0
 11
88.0565
 21
78.6956
 31
0.0
  0
LINE
  8
0
 62
     0
 10
88.0565
 20
78.6956
 30
0.0
 11
88.0565
 21
64.6963
 31
0.0
  0
LINE
  8
0
 62
     0
 10
88.0565
 20
64.6963
 30
0.0
 11
74.0572
 21
64.6963
 31
0.0
  0
LINE
  8
0
 62
     0
 10
74.0572
 20
64.6963
 30
0.0
 11
74.0572
 21
78.6956
 31
0.0
  0
LINE
  8
0
 62
     0
 10
93.1072
 20
78.6956
 30
0.0
 11
107.107
 21
78.6956
 31
0.0
  0
LINE
  8
0
 62
     0
 10
107.107
 20
78.6956
 30
0.0
 11
107.107
 21
64.6963
 31
0.0
  0
LINE
  8
0
 62
     0
 10
107.107
 20
64.6963
 30
0.0
 11
93.1072
 21
64.6963
 31
0.0
  0
LINE
  8
0
 62
     0
 10
93.1072
 20
64.6963
 30
0.0
 11
93.1072
 21
78.6956
 31
0.0
  0
LINE
  8
0
 62
     0
 10
112.157
 20
78.6956
 30
0.0
 11
126.157
 21
78.6956
 31
0.0
  0
LINE
  8
0
 62
     0
 10
126.157
 20
78.6956
 30
0.0
 11
126.157
 21
64.6963
 31
0.0
  0
LINE
  8
0
 62
     0
 10
126.157
 20
64.6963
 30
0.0
 11
112.157
 21
64.6963
 31
0.0
  0
LINE
  8
0
 62
     0
 10
112.157
 20
64.6963
 30
0.0
 11
112.157
 21
78.6956
 31
0.0
  0
LINE
  8
0
 62
     0
 10
131.207
 20
78.6956
 30
0.0
 11
145.207
 21
78.6956
 31
0.0
  0
LINE
  8
0
 62
     0
 10
145.207
 20
78.6956
 30
0.0
 11
145.207
 21
64.6963
 31
0.0
  0
LINE
  8
0
 62
     0
 10
145.207
 20
64.6963
 30
0.0
 11
131.207
 21
64.6963
 31
0.0
  0
LINE
  8
0
 62
     0
 10
131.207
 20
64.6963
 30
0.0
 11
131.207
 21
78.6956
 31
0.0
  0
LINE
  8
0
 62
     0
 10
150.257
 20
78.6956
 30
0.0
 11
164.257
 21
78.6956
 31
0.0
  0
LINE
  8
0
 62
     0
 10
164.257
 20
78.6956
 30
0.0
 11
164.257
 21
64.6963
 31
0.0
  0
LINE
  8
0
 62
     0
 10
164.257
 20
64.6963
 30
0.0
 11
150.257
 21
64.6963
 31
0.0
  0
LINE
  8
0
 62
     0
 10
150.257
 20
64.6963
 30
0.0
 11
150.257
 21
78.6956
 31
0.0
  0
LINE
  8
0
 62
     0
 10
169.307
 20
78.6956
 30
0.0
 11
183.307
 21
78.6956
 31
0.0
  0
LINE
  8
0
 62
     0
 10
183.307
 20
78.6956
 30
0.0
 11
183.307
 21
64.6963
 31
0.0
  0
LINE
  8
0
 62
     0
 10
183.307
 20
64.6963
 30
0.0
 11
169.307
 21
64.6963
 31
0.0
  0
LINE
  8
0
 62
     0
 10
169.307
 20
64.6963
 30
0.0
 11
169.307
 21
78.6956
 31
0.0
  0
LINE
  8
0
 62
     0
 10
188.357
 20
78.6956
 30
0.0
 11
202.357
 21
78.6956
 31
0.0
  0
LINE
  8
0
 62
     0
 10
202.357
 20
78.6956
 30
0.0
 11
202.357
 21
64.6963
 31
0.0
  0
LINE
  8
0
 62
     0
 10
202.357
 20
64.6963
 30
0.0
 11
188.357
 21
64.6963
 31
0.0
  0
LINE
  8
0
 62
     0
 10
188.357
 20
64.6963
 30
0.0
 11
188.357
 21
78.6956
 31
0.0
  0
LINE
  8
0
 62
     0
 10
207.407
 20
78.6956
 30
0.0
 11
221.407
 21
78.6956
 31
0.0
  0
LINE
  8
0
 62
     0
 10
221.407
 20
78.6956
 30
0.0
 11
221.407
 21
64.6963
 31
0.0
  0
LINE
  8
0
 62
     0
 10
221.407
 20
64.6963
 30
0.0
 11
207.407
 21
64.6963
 31
0.0
  0
LINE
  8
0
 62
     0
 10
207.407
 20
64.6963
 30
0.0
 11
207.407
 21
78.6956
 31
0.0
  0
LINE
  8
0
 62
     0
 10
226.457
 20
78.6956
 30
0.0
 11
240.457
 21
78.6956
 31
0.0
  0
LINE
  8
0
 62
     0
 10
240.457
 20
78.6956
 30
0.0
 11
240.457
 21
64.6963
 31
0.0
  0
LINE
  8
0
 62
     0
 10
240.457
 20
64.6963
 30
0.0
 11
226.457
 21
64.6963
 31
0.0
  0
LINE
  8
0
 62
     0
 10
226.457
 20
64.6963
 30
0.0
 11
226.457
 21
78.6956
 31
0.0
  0
LINE
  8
0
 62
     0
 10
245.507
 20
78.6956
 30
0.0
 11
259.507
 21
78.6956
 31
0.0
  0
LINE
  8
0
 62
     0
 10
259.507
 20
78.6956
 30
0.0
 11
259.507
 21
64.6963
 31
0.0
  0
LINE
  8
0
 62
     0
 10
259.507
 20
64.6963
 30
0.0
 11
245.507
 21
64.6963
 31
0.0
  0
LINE
  8
0
 62
     0
 10
245.507
 20
64.6963
 30
0.0
 11
245.507
 21
78.6956
 31
0.0
  0
LINE
  8
0
 62
     0
 10
264.557
 20
78.6956
 30
0.0
 11
278.557
 21
78.6956
 31
0.0
  0
LINE
  8
0
 62
     0
 10
278.557
 20
78.6956
 30
0.0
 11
278.557
 21
64.6963
 31
0.0
  0
LINE
  8
0
 62
     0
 10
278.557
 20
64.6963
 30
0.0
 11
264.557
 21
64.6963
 31
0.0
  0
LINE
  8
0
 62
     0
 10
264.557
 20
64.6963
 30
0.0
 11
264.557
 21
78.6956
 31
0.0
  0
LINE
  8
0
 62
     0
 10
288.37
 20
78.6956
 30
0.0
 11
302.369
 21
78.6956
 31
0.0
  0
LINE
  8
0
 62
     0
 10
302.369
 20
78.6956
 30
0.0
 11
302.369
 21
64.6963
 31
0.0
  0
LINE
  8
0
 62
     0
 10
302.369
 20
64.6963
 30
0.0
 11
288.37
 21
64.6963
 31
0.0
  0
LINE
  8
0
 62
     0
 10
288.37
 20
64.6963
 30
0.0
 11
288.37
 21
78.6956
 31
0.0
  0
LINE
  8
0
 62
     0
 10
321.707
 20
78.6956
 30
0.0
 11
335.707
 21
78.6956
 31
0.0
  0
LINE
  8
0
 62
     0
 10
335.707
 20
78.6956
 30
0.0
 11
335.707
 21
64.6963
 31
0.0
  0
LINE
  8
0
 62
     0
 10
335.707
 20
64.6963
 30
0.0
 11
321.707
 21
64.6963
 31
0.0
  0
LINE
  8
0
 62
     0
 10
321.707
 20
64.6963
 30
0.0
 11
321.707
 21
78.6956
 31
0.0
  0
LINE
  8
0
 62
     0
 10
283.607
 20
97.7456
 30
0.0
 11
283.607
 21
93.0465
 31
0.0
  0
LINE
  8
0
 62
     0
 10
283.607
 20
93.0465
 30
0.0
 11
282.082
 21
93.0465
 31
0.0
  0
LINE
  8
0
 62
     0
 10
282.082
 20
93.0465
 30
0.0
 11
282.082
 21
96.2766
 31
0.0
  0
LINE
  8
0
 62
     0
 10
282.082
 20
96.2766
 30
0.0
 11
275.332
 21
96.2766
 31
0.0
  0
LINE
  8
0
 62
     0
 10
275.332
 20
96.2766
 30
0.0
 11
275.332
 21
93.0465
 31
0.0
  0
LINE
  8
0
 62
     0
 10
275.332
 20
93.0465
 30
0.0
 11
274.507
 21
93.0465
 31
0.0
  0
LINE
  8
0
 62
     0
 10
274.507
 20
93.0465
 30
0.0
 11
274.507
 21
90.2462
 31
0.0
  0
LINE
  8
0
 62
     0
 10
274.507
 20
90.2462
 30
0.0
 11
275.332
 21
90.2462
 31
0.0
  0
LINE
  8
0
 62
     0
 10
275.332
 20
90.2462
 30
0.0
 11
275.332
 21
83.9763
 31
0.0
  0
LINE
  8
0
 62
     0
 10
275.332
 20
83.9763
 30
0.0
 11
277.056
 21
83.9763
 31
0.0
  0
LINE
  8
0
 62
     0
 10
277.056
 20
83.9763
 30
0.0
 11
277.056
 21
82.7761
 31
0.0
  0
LINE
  8
0
 62
     0
 10
277.056
 20
82.7761
 30
0.0
 11
280.356
 21
82.7761
 31
0.0
  0
LINE
  8
0
 62
     0
 10
280.356
 20
82.7761
 30
0.0
 11
280.356
 21
83.9763
 31
0.0
  0
LINE
  8
0
 62
     0
 10
280.356
 20
83.9763
 30
0.0
 11
282.082
 21
83.9763
 31
0.0
  0
LINE
  8
0
 62
     0
 10
282.082
 20
83.9763
 30
0.0
 11
282.082
 21
88.4467
 31
0.0
  0
LINE
  8
0
 62
     0
 10
282.082
 20
88.4467
 30
0.0
 11
283.607
 21
88.4467
 31
0.0
  0
LINE
  8
0
 62
     0
 10
283.607
 20
88.4467
 30
0.0
 11
283.607
 21
83.7463
 31
0.0
  0
LINE
  8
0
 62
     0
 10
283.607
 20
83.7463
 30
0.0
 11
297.607
 21
83.7463
 31
0.0
  0
LINE
  8
0
 62
     0
 10
297.607
 20
83.7463
 30
0.0
 11
297.607
 21
88.4467
 31
0.0
  0
LINE
  8
0
 62
     0
 10
297.607
 20
88.4467
 30
0.0
 11
299.132
 21
88.4467
 31
0.0
  0
LINE
  8
0
 62
     0
 10
299.132
 20
88.4467
 30
0.0
 11
299.132
 21
83.9763
 31
0.0
  0
LINE
  8
0
 62
     0
 10
299.132
 20
83.9763
 30
0.0
 11
300.856
 21
83.9763
 31
0.0
  0
LINE
  8
0
 62
     0
 10
300.856
 20
83.9763
 30
0.0
 11
300.856
 21
82.7761
 31
0.0
  0
LINE
  8
0
 62
     0
 10
300.856
 20
82.7761
 30
0.0
 11
304.157
 21
82.7761
 31
0.0
  0
LINE
  8
0
 62
     0
 10
304.157
 20
82.7761
 30
0.0
 11
304.157
 21
83.9763
 31
0.0
  0
LINE
  8
0
 62
     0
 10
304.157
 20
83.9763
 30
0.0
 11
305.882
 21
83.9763
 31
0.0
  0
LINE
  8
0
 62
     0
 10
305.882
 20
83.9763
 30
0.0
 11
305.882
 21
90.2462
 31
0.0
  0
LINE
  8
0
 62
     0
 10
305.882
 20
90.2462
 30
0.0
 11
306.706
 21
90.2462
 31
0.0
  0
LINE
  8
0
 62
     0
 10
306.706
 20
90.2462
 30
0.0
 11
306.706
 21
93.0465
 31
0.0
  0
LINE
  8
0
 62
     0
 10
306.706
 20
93.0465
 30
0.0
 11
305.882
 21
93.0465
 31
0.0
  0
LINE
  8
0
 62
     0
 10
305.882
 20
93.0465
 30
0.0
 11
305.882
 21
96.2766
 31
0.0
  0
LINE
  8
0
 62
     0
 10
305.882
 20
96.2766
 30
0.0
 11
299.132
 21
96.2766
 31
0.0
  0
LINE
  8
0
 62
     0
 10
299.132
 20
96.2766
 30
0.0
 11
299.132
 21
93.0465
 31
0.0
  0
LINE
  8
0
 62
     0
 10
299.132
 20
93.0465
 30
0.0
 11
297.607
 21
93.0465
 31
0.0
  0
LINE
  8
0
 62
     0
 10
297.607
 20
93.0465
 30
0.0
 11
297.607
 21
97.7456
 31
0.0
  0
LINE
  8
0
 62
     0
 10
297.607
 20
97.7456
 30
0.0
 11
283.607
 21
97.7456
 31
0.0
  0
LINE
  8
0
 62
     0
 10
26.4322
 20
97.7456
 30
0.0
 11
40.4315
 21
97.7456
 31
0.0
  0
LINE
  8
0
 62
     0
 10
40.4315
 20
97.7456
 30
0.0
 11
40.4315
 21
83.7463
 31
0.0
  0
LINE
  8
0
 62
     0
 10
40.4315
 20
83.7463
 30
0.0
 11
26.4322
 21
83.7463
 31
0.0
  0
LINE
  8
0
 62
     0
 10
26.4322
 20
83.7463
 30
0.0
 11
26.4322
 21
97.7456
 31
0.0
  0
LINE
  8
0
 62
     0
 10
45.4822
 20
97.7456
 30
0.0
 11
59.4815
 21
97.7456
 31
0.0
  0
LINE
  8
0
 62
     0
 10
59.4815
 20
97.7456
 30
0.0
 11
59.4815
 21
83.7463
 31
0.0
  0
LINE
  8
0
 62
     0
 10
59.4815
 20
83.7463
 30
0.0
 11
45.4822
 21
83.7463
 31
0.0
  0
LINE
  8
0
 62
     0
 10
45.4822
 20
83.7463
 30
0.0
 11
45.4822
 21
97.7456
 31
0.0
  0
LINE
  8
0
 62
     0
 10
64.5322
 20
97.7456
 30
0.0
 11
78.5315
 21
97.7456
 31
0.0
  0
LINE
  8
0
 62
     0
 10
78.5315
 20
97.7456
 30
0.0
 11
78.5315
 21
83.7463
 31
0.0
  0
LINE
  8
0
 62
     0
 10
78.5315
 20
83.7463
 30
0.0
 11
64.5322
 21
83.7463
 31
0.0
  0
LINE
  8
0
 62
     0
 10
64.5322
 20
83.7463
 30
0.0
 11
64.5322
 21
97.7456
 31
0.0
  0
LINE
  8
0
 62
     0
 10
83.5822
 20
97.7456
 30
0.0
 11
97.5815
 21
97.7456
 31
0.0
  0
LINE
  8
0
 62
     0
 10
97.5815
 20
97.7456
 30
0.0
 11
97.5815
 21
83.7463
 31
0.0
  0
LINE
  8
0
 62
     0
 10
97.5815
 20
83.7463
 30
0.0
 11
83.5822
 21
83.7463
 31
0.0
  0
LINE
  8
0
 62
     0
 10
83.5822
 20
83.7463
 30
0.0
 11
83.5822
 21
97.7456
 31
0.0
  0
LINE
  8
0
 62
     0
 10
102.632
 20
97.7456
 30
0.0
 11
116.632
 21
97.7456
 31
0.0
  0
LINE
  8
0
 62
     0
 10
116.632
 20
97.7456
 30
0.0
 11
116.632
 21
83.7463
 31
0.0
  0
LINE
  8
0
 62
     0
 10
116.632
 20
83.7463
 30
0.0
 11
102.632
 21
83.7463
 31
0.0
  0
LINE
  8
0
 62
     0
 10
102.632
 20
83.7463
 30
0.0
 11
102.632
 21
97.7456
 31
0.0
  0
LINE
  8
0
 62
     0
 10
121.682
 20
97.7456
 30
0.0
 11
135.682
 21
97.7456
 31
0.0
  0
LINE
  8
0
 62
     0
 10
135.682
 20
97.7456
 30
0.0
 11
135.682
 21
83.7463
 31
0.0
  0
LINE
  8
0
 62
     0
 10
135.682
 20
83.7463
 30
0.0
 11
121.682
 21
83.7463
 31
0.0
  0
LINE
  8
0
 62
     0
 10
121.682
 20
83.7463
 30
0.0
 11
121.682
 21
97.7456
 31
0.0
  0
LINE
  8
0
 62
     0
 10
140.732
 20
97.7456
 30
0.0
 11
154.732
 21
97.7456
 31
0.0
  0
LINE
  8
0
 62
     0
 10
154.732
 20
97.7456
 30
0.0
 11
154.732
 21
83.7463
 31
0.0
  0
LINE
  8
0
 62
     0
 10
154.732
 20
83.7463
 30
0.0
 11
140.732
 21
83.7463
 31
0.0
  0
LINE
  8
0
 62
     0
 10
140.732
 20
83.7463
 30
0.0
 11
140.732
 21
97.7456
 31
0.0
  0
LINE
  8
0
 62
     0
 10
159.782
 20
97.7456
 30
0.0
 11
173.782
 21
97.7456
 31
0.0
  0
LINE
  8
0
 62
     0
 10
173.782
 20
97.7456
 30
0.0
 11
173.782
 21
83.7463
 31
0.0
  0
LINE
  8
0
 62
     0
 10
173.782
 20
83.7463
 30
0.0
 11
159.782
 21
83.7463
 31
0.0
  0
LINE
  8
0
 62
     0
 10
159.782
 20
83.7463
 30
0.0
 11
159.782
 21
97.7456
 31
0.0
  0
LINE
  8
0
 62
     0
 10
178.832
 20
97.7456
 30
0.0
 11
192.832
 21
97.7456
 31
0.0
  0
LINE
  8
0
 62
     0
 10
192.832
 20
97.7456
 30
0.0
 11
192.832
 21
83.7463
 31
0.0
  0
LINE
  8
0
 62
     0
 10
192.832
 20
83.7463
 30
0.0
 11
178.832
 21
83.7463
 31
0.0
  0
LINE
  8
0
 62
     0
 10
178.832
 20
83.7463
 30
0.0
 11
178.832
 21
97.7456
 31
0.0
  0
LINE
  8
0
 62
     0
 10
197.882
 20
97.7456
 30
0.0
 11
211.882
 21
97.7456
 31
0.0
  0
LINE
  8
0
 62
     0
 10
211.882
 20
97.7456
 30
0.0
 11
211.882
 21
83.7463
 31
0.0
  0
LINE
  8
0
 62
     0
 10
211.882
 20
83.7463
 30
0.0
 11
197.882
 21
83.7463
 31
0.0
  0
LINE
  8
0
 62
     0
 10
197.882
 20
83.7463
 30
0.0
 11
197.882
 21
97.7456
 31
0.0
  0
LINE
  8
0
 62
     0
 10
216.932
 20
97.7456
 30
0.0
 11
230.932
 21
97.7456
 31
0.0
  0
LINE
  8
0
 62
     0
 10
230.932
 20
97.7456
 30
0.0
 11
230.932
 21
83.7463
 31
0.0
  0
LINE
  8
0
 62
     0
 10
230.932
 20
83.7463
 30
0.0
 11
216.932
 21
83.7463
 31
0.0
  0
LINE
  8
0
 62
     0
 10
216.932
 20
83.7463
 30
0.0
 11
216.932
 21
97.7456
 31
0.0
  0
LINE
  8
0
 62
     0
 10
235.982
 20
97.7456
 30
0.0
 11
249.982
 21
97.7456
 31
0.0
  0
LINE
  8
0
 62
     0
 10
249.982
 20
97.7456
 30
0.0
 11
249.982
 21
83.7463
 31
0.0
  0
LINE
  8
0
 62
     0
 10
249.982
 20
83.7463
 30
0.0
 11
235.982
 21
83.7463
 31
0.0
  0
LINE
  8
0
 62
     0
 10
235.982
 20
83.7463
 30
0.0
 11
235.982
 21
97.7456
 31
0.0
  0
LINE
  8
0
 62
     0
 10
255.032
 20
97.7456
 30
0.0
 11
269.032
 21
97.7456
 31
0.0
  0
LINE
  8
0
 62
     0
 10
269.032
 20
97.7456
 30
0.0
 11
269.032
 21
83.7463
 31
0.0
  0
LINE
  8
0
 62
     0
 10
269.032
 20
83.7463
 30
0.0
 11
255.032
 21
83.7463
 31
0.0
  0
LINE
  8
0
 62
     0
 10
255.032
 20
83.7463
 30
0.0
 11
255.032
 21
97.7456
 31
0.0
  0
LINE
  8
0
 62
     0
 10
321.707
 20
97.7456
 30
0.0
 11
335.707
 21
97.7456
 31
0.0
  0
LINE
  8
0
 62
     0
 10
335.707
 20
97.7456
 30
0.0
 11
335.707
 21
83.7463
 31
0.0
  0
LINE
  8
0
 62
     0
 10
335.707
 20
83.7463
 30
0.0
 11
321.707
 21
83.7463
 31
0.0
  0
LINE
  8
0
 62
     0
 10
321.707
 20
83.7463
 30
0.0
 11
321.707
 21
97.7456
 31
0.0
  0
LINE
  8
0
 62
     0
 10
2.61965
 20
121.558
 30
0.0
 11
16.6192
 21
121.558
 31
0.0
  0
LINE
  8
0
 62
     0
 10
16.6192
 20
121.558
 30
0.0
 11
16.6192
 21
107.559
 31
0.0
  0
LINE
  8
0
 62
     0
 10
16.6192
 20
107.559
 30
0.0
 11
2.61965
 21
107.559
 31
0.0
  0
LINE
  8
0
 62
     0
 10
2.61965
 20
107.559
 30
0.0
 11
2.61965
 21
121.558
 31
0.0
  0
LINE
  8
0
 62
     0
 10
26.4322
 20
121.558
 30
0.0
 11
40.4315
 21
121.558
 31
0.0
  0
LINE
  8
0
 62
     0
 10
40.4315
 20
121.558
 30
0.0
 11
40.4315
 21
107.559
 31
0.0
  0
LINE
  8
0
 62
     0
 10
40.4315
 20
107.559
 30
0.0
 11
26.4322
 21
107.559
 31
0.0
  0
LINE
  8
0
 62
     0
 10
26.4322
 20
107.559
 30
0.0
 11
26.4322
 21
121.558
 31
0.0
  0
LINE
  8
0
 62
     0
 10
50.2447
 20
121.558
 30
0.0
 11
64.244
 21
121.558
 31
0.0
  0
LINE
  8
0
 62
     0
 10
64.244
 20
121.558
 30
0.0
 11
64.244
 21
107.559
 31
0.0
  0
LINE
  8
0
 62
     0
 10
64.244
 20
107.559
 30
0.0
 11
50.2447
 21
107.559
 31
0.0
  0
LINE
  8
0
 62
     0
 10
50.2447
 20
107.559
 30
0.0
 11
50.2447
 21
121.558
 31
0.0
  0
LINE
  8
0
 62
     0
 10
69.2947
 20
121.558
 30
0.0
 11
83.294
 21
121.558
 31
0.0
  0
LINE
  8
0
 62
     0
 10
83.294
 20
121.558
 30
0.0
 11
83.294
 21
107.559
 31
0.0
  0
LINE
  8
0
 62
     0
 10
83.294
 20
107.559
 30
0.0
 11
69.2947
 21
107.559
 31
0.0
  0
LINE
  8
0
 62
     0
 10
69.2947
 20
107.559
 30
0.0
 11
69.2947
 21
121.558
 31
0.0
  0
LINE
  8
0
 62
     0
 10
88.3447
 20
121.558
 30
0.0
 11
102.344
 21
121.558
 31
0.0
  0
LINE
  8
0
 62
     0
 10
102.344
 20
121.558
 30
0.0
 11
102.344
 21
107.559
 31
0.0
  0
LINE
  8
0
 62
     0
 10
102.344
 20
107.559
 30
0.0
 11
88.3447
 21
107.559
 31
0.0
  0
LINE
  8
0
 62
     0
 10
88.3447
 20
107.559
 30
0.0
 11
88.3447
 21
121.558
 31
0.0
  0
LINE
  8
0
 62
     0
 10
107.395
 20
121.558
 30
0.0
 11
121.394
 21
121.558
 31
0.0
  0
LINE
  8
0
 62
     0
 10
121.394
 20
121.558
 30
0.0
 11
121.394
 21
107.559
 31
0.0
  0
LINE
  8
0
 62
     0
 10
121.394
 20
107.559
 30
0.0
 11
107.395
 21
107.559
 31
0.0
  0
LINE
  8
0
 62
     0
 10
107.395
 20
107.559
 30
0.0
 11
107.395
 21
121.558
 31
0.0
  0
LINE
  8
0
 62
     0
 10
131.207
 20
121.558
 30
0.0
 11
145.207
 21
121.558
 31
0.0
  0
LINE
  8
0
 62
     0
 10
145.207
 20
121.558
 30
0.0
 11
145.207
 21
107.559
 31
0.0
  0
LINE
  8
0
 62
     0
 10
145.207
 20
107.559
 30
0.0
 11
131.207
 21
107.559
 31
0.0
  0
LINE
  8
0
 62
     0
 10
131.207
 20
107.559
 30
0.0
 11
131.207
 21
121.558
 31
0.0
  0
LINE
  8
0
 62
     0
 10
150.257
 20
121.558
 30
0.0
 11
164.257
 21
121.558
 31
0.0
  0
LINE
  8
0
 62
     0
 10
164.257
 20
121.558
 30
0.0
 11
164.257
 21
107.559
 31
0.0
  0
LINE
  8
0
 62
     0
 10
164.257
 20
107.559
 30
0.0
 11
150.257
 21
107.559
 31
0.0
  0
LINE
  8
0
 62
     0
 10
150.257
 20
107.559
 30
0.0
 11
150.257
 21
121.558
 31
0.0
  0
LINE
  8
0
 62
     0
 10
169.307
 20
121.558
 30
0.0
 11
183.307
 21
121.558
 31
0.0
  0
LINE
  8
0
 62
     0
 10
183.307
 20
121.558
 30
0.0
 11
183.307
 21
107.559
 31
0.0
  0
LINE
  8
0
 62
     0
 10
183.307
 20
107.559
 30
0.0
 11
169.307
 21
107.559
 31
0.0
  0
LINE
  8
0
 62
     0
 10
169.307
 20
107.559
 30
0.0
 11
169.307
 21
121.558
 31
0.0
  0
LINE
  8
0
 62
     0
 10
188.357
 20
121.558
 30
0.0
 11
202.357
 21
121.558
 31
0.0
  0
LINE
  8
0
 62
     0
 10
202.357
 20
121.558
 30
0.0
 11
202.357
 21
107.559
 31
0.0
  0
LINE
  8
0
 62
     0
 10
202.357
 20
107.559
 30
0.0
 11
188.357
 21
107.559
 31
0.0
  0
LINE
  8
0
 62
     0
 10
188.357
 20
107.559
 30
0.0
 11
188.357
 21
121.558
 31
0.0
  0
LINE
  8
0
 62
     0
 10
212.17
 20
121.558
 30
0.0
 11
226.169
 21
121.558
 31
0.0
  0
LINE
  8
0
 62
     0
 10
226.169
 20
121.558
 30
0.0
 11
226.169
 21
107.559
 31
0.0
  0
LINE
  8
0
 62
     0
 10
226.169
 20
107.559
 30
0.0
 11
212.17
 21
107.559
 31
0.0
  0
LINE
  8
0
 62
     0
 10
212.17
 20
107.559
 30
0.0
 11
212.17
 21
121.558
 31
0.0
  0
LINE
  8
0
 62
     0
 10
231.22
 20
121.558
 30
0.0
 11
245.219
 21
121.558
 31
0.0
  0
LINE
  8
0
 62
     0
 10
245.219
 20
121.558
 30
0.0
 11
245.219
 21
107.559
 31
0.0
  0
LINE
  8
0
 62
     0
 10
245.219
 20
107.559
 30
0.0
 11
231.22
 21
107.559
 31
0.0
  0
LINE
  8
0
 62
     0
 10
231.22
 20
107.559
 30
0.0
 11
231.22
 21
121.558
 31
0.0
  0
LINE
  8
0
 62
     0
 10
250.27
 20
121.558
 30
0.0
 11
264.269
 21
121.558
 31
0.0
  0
LINE
  8
0
 62
     0
 10
264.269
 20
121.558
 30
0.0
 11
264.269
 21
107.559
 31
0.0
  0
LINE
  8
0
 62
     0
 10
264.269
 20
107.559
 30
0.0
 11
250.27
 21
107.559
 31
0.0
  0
LINE
  8
0
 62
     0
 10
250.27
 20
107.559
 30
0.0
 11
250.27
 21
121.558
 31
0.0
  0
LINE
  8
0
 62
     0
 10
269.32
 20
121.558
 30
0.0
 11
283.319
 21
121.558
 31
0.0
  0
LINE
  8
0
 62
     0
 10
283.319
 20
121.558
 30
0.0
 11
283.319
 21
107.559
 31
0.0
  0
LINE
  8
0
 62
     0
 10
283.319
 20
107.559
 30
0.0
 11
269.32
 21
107.559
 31
0.0
  0
LINE
  8
0
 62
     0
 10
269.32
 20
107.559
 30
0.0
 11
269.32
 21
121.558
 31
0.0
  0
LINE
  8
0
 62
     0
 10
293.132
 20
121.558
 30
0.0
 11
307.132
 21
121.558
 31
0.0
  0
LINE
  8
0
 62
     0
 10
307.132
 20
121.558
 30
0.0
 11
307.132
 21
107.559
 31
0.0
  0
LINE
  8
0
 62
     0
 10
307.132
 20
107.559
 30
0.0
 11
293.132
 21
107.559
 31
0.0
  0
LINE
  8
0
 62
     0
 10
293.132
 20
107.559
 30
0.0
 11
293.132
 21
121.558
 31
0.0
  0
LINE
  8
0
 62
     0
 10
321.707
 20
121.558
 30
0.0
 11
335.707
 21
121.558
 31
0.0
  0
LINE
  8
0
 62
     0
 10
335.707
 20
121.558
 30
0.0
 11
335.707
 21
107.559
 31
0.0
  0
LINE
  8
0
 62
     0
 10
335.707
 20
107.559
 30
0.0
 11
321.707
 21
107.559
 31
0.0
  0
LINE
  8
0
 62
     0
 10
321.707
 20
107.559
 30
0.0
 11
321.707
 21
121.558
 31
0.0
  0
ENDSEC
  0
EOF
